<svg width="19" height="20" viewBox="0 0 19 20" fill="none" xmlns="http://www.w3.org/2000/svg">
<path fill-rule="evenodd" clip-rule="evenodd" d="M5.685 0H14.066C17.155 0 18.875 1.78 18.875 4.83V15.16C18.875 18.26 17.155 20 14.066 20H5.685C2.645 20 0.875 18.26 0.875 15.16V4.83C0.875 1.78 2.645 0 5.685 0ZM5.955 4.66V4.65H8.944C9.375 4.65 9.725 5 9.725 5.429C9.725 5.87 9.375 6.22 8.944 6.22H5.955C5.524 6.22 5.175 5.87 5.175 5.44C5.175 5.01 5.524 4.66 5.955 4.66ZM5.955 10.74H13.795C14.225 10.74 14.575 10.39 14.575 9.96C14.575 9.53 14.225 9.179 13.795 9.179H5.955C5.524 9.179 5.175 9.53 5.175 9.96C5.175 10.39 5.524 10.74 5.955 10.74ZM5.955 15.31H13.795C14.194 15.27 14.495 14.929 14.495 14.53C14.495 14.12 14.194 13.78 13.795 13.74H5.955C5.655 13.71 5.365 13.85 5.205 14.11C5.045 14.36 5.045 14.69 5.205 14.95C5.365 15.2 5.655 15.35 5.955 15.31Z" fill="#06C149"/>
</svg>
