<svg width="21" height="20" viewBox="0 0 21 20" fill="none" xmlns="http://www.w3.org/2000/svg">
<path fill-rule="evenodd" clip-rule="evenodd" d="M0.125 10.0001C0.125 4.48012 4.595 0.00012207 10.125 0.00012207C15.645 0.00012207 20.125 4.48012 20.125 10.0001C20.125 15.5301 15.645 20.0001 10.125 20.0001C4.595 20.0001 0.125 15.5301 0.125 10.0001ZM12.355 11.8301L13.975 6.71012C14.085 6.36012 13.765 6.03012 13.415 6.14012L8.295 7.74012C8.085 7.81012 7.915 7.97012 7.855 8.18012L6.255 13.3101C6.145 13.6501 6.475 13.9801 6.815 13.8701L11.915 12.2701C12.125 12.2101 12.295 12.0401 12.355 11.8301Z" fill="#06C149"/>
</svg>
