<svg width="21" height="25" viewBox="0 0 21 25" fill="none" xmlns="http://www.w3.org/2000/svg">
<path d="M8.16667 2.33333C7.83611 2.33333 7.55922 2.22133 7.336 1.99733C7.112 1.77411 7 1.49722 7 1.16667C7 0.836111 7.112 0.558833 7.336 0.334833C7.55922 0.111611 7.83611 0 8.16667 0H12.8333C13.1639 0 13.4412 0.111611 13.6652 0.334833C13.8884 0.558833 14 0.836111 14 1.16667C14 1.49722 13.8884 1.77411 13.6652 1.99733C13.4412 2.22133 13.1639 2.33333 12.8333 2.33333H8.16667ZM10.5 15.1667C10.8306 15.1667 11.1078 15.0547 11.3318 14.8307C11.5551 14.6074 11.6667 14.3306 11.6667 14V9.33333C11.6667 9.00278 11.5551 8.7255 11.3318 8.5015C11.1078 8.27828 10.8306 8.16667 10.5 8.16667C10.1694 8.16667 9.89256 8.27828 9.66933 8.5015C9.44533 8.7255 9.33333 9.00278 9.33333 9.33333V14C9.33333 14.3306 9.44533 14.6074 9.66933 14.8307C9.89256 15.0547 10.1694 15.1667 10.5 15.1667ZM10.5 24.5C9.06111 24.5 7.70467 24.2231 6.43067 23.6693C5.15744 23.1148 4.04444 22.3611 3.09167 21.4083C2.13889 20.4556 1.38522 19.3426 0.830667 18.0693C0.276889 16.7953 0 15.4389 0 14C0 12.5611 0.276889 11.2047 0.830667 9.93067C1.38522 8.65744 2.13889 7.54444 3.09167 6.59167C4.04444 5.63889 5.15744 4.88561 6.43067 4.33183C7.70467 3.77728 9.06111 3.5 10.5 3.5C11.7056 3.5 12.8625 3.69444 13.9708 4.08333C15.0792 4.47222 16.1194 5.03611 17.0917 5.775L17.9375 4.92917C18.1514 4.71528 18.4139 4.60833 18.725 4.60833C19.0361 4.60833 19.3083 4.725 19.5417 4.95833C19.7556 5.17222 19.8625 5.44444 19.8625 5.775C19.8625 6.10556 19.7556 6.37778 19.5417 6.59167L18.725 7.40833C19.4639 8.38056 20.0278 9.42083 20.4167 10.5292C20.8056 11.6375 21 12.7944 21 14C21 15.4389 20.7231 16.7953 20.1693 18.0693C19.6148 19.3426 18.8611 20.4556 17.9083 21.4083C16.9556 22.3611 15.8426 23.1148 14.5693 23.6693C13.2953 24.2231 11.9389 24.5 10.5 24.5ZM10.5 22.1667C12.7556 22.1667 14.6806 21.3694 16.275 19.775C17.8694 18.1806 18.6667 16.2556 18.6667 14C18.6667 11.7444 17.8694 9.81944 16.275 8.225C14.6806 6.63056 12.7556 5.83333 10.5 5.83333C8.24444 5.83333 6.31944 6.63056 4.725 8.225C3.13056 9.81944 2.33333 11.7444 2.33333 14C2.33333 16.2556 3.13056 18.1806 4.725 19.775C6.31944 21.3694 8.24444 22.1667 10.5 22.1667Z" fill="#212121"/>
</svg>
