<svg width="24" height="21" viewBox="0 0 24 21" fill="none" xmlns="http://www.w3.org/2000/svg">
<path d="M10.8752 2.31303C9.07198 2.51749 7.36172 3.22144 5.93708 4.34556L7.1701 5.58008C7.36882 5.79334 7.47701 6.07542 7.47187 6.36687C7.46672 6.65833 7.34865 6.93641 7.14253 7.14253C6.93641 7.34865 6.65833 7.46672 6.36687 7.47187C6.07542 7.47701 5.79334 7.36882 5.58008 7.1701L4.34106 5.93258C3.28801 7.25343 2.60286 8.82918 2.35503 10.5001H4.87507C5.17344 10.5001 5.45959 10.6187 5.67057 10.8297C5.88156 11.0406 6.00008 11.3268 6.00008 11.6252C6.00008 11.9235 5.88156 12.2097 5.67057 12.4207C5.45959 12.6316 5.17344 12.7502 4.87507 12.7502H2.28753C2.52108 15.1576 3.62135 17.3981 5.38358 19.0548C5.59612 19.2601 5.71935 19.5407 5.72665 19.8362C5.73395 20.1316 5.62473 20.418 5.42258 20.6335C5.22043 20.8491 4.9416 20.9764 4.64633 20.9881C4.35105 20.9997 4.06305 20.8947 3.84455 20.6958C1.53452 18.5313 0 15.3392 0 11.9147C0 5.32657 5.38057 0 12.0002 0C18.6198 0 24.0003 5.32507 24.0003 11.9147C23.9974 13.5588 23.6599 15.1852 23.0085 16.6948C22.3572 18.2044 21.4054 19.5656 20.2113 20.6958C19.9928 20.8947 19.7048 20.9997 19.4095 20.9881C19.1142 20.9764 18.8354 20.8491 18.6333 20.6335C18.4311 20.418 18.3219 20.1316 18.3292 19.8362C18.3365 19.5407 18.4597 19.2601 18.6723 19.0548C20.4222 17.3953 21.5043 15.1527 21.7143 12.7502H19.1253C18.8269 12.7502 18.5407 12.6316 18.3298 12.4207C18.1188 12.2097 18.0003 11.9235 18.0003 11.6252C18.0003 11.3268 18.1188 11.0406 18.3298 10.8297C18.5407 10.6187 18.8269 10.5001 19.1253 10.5001H21.6453C21.0093 6.20109 17.5157 2.81254 13.1252 2.31303V4.12506C13.1252 4.42343 13.0067 4.70958 12.7957 4.92056C12.5847 5.13155 12.2985 5.25007 12.0002 5.25007C11.7018 5.25007 11.4156 5.13155 11.2047 4.92056C10.9937 4.70958 10.8752 4.42343 10.8752 4.12506V2.31303ZM17.1737 5.71058C17.31 5.60232 17.4798 5.54485 17.6538 5.54801C17.8279 5.55117 17.9954 5.61477 18.1277 5.7279C18.26 5.84104 18.3488 5.99667 18.3789 6.16811C18.409 6.33956 18.3786 6.51614 18.2928 6.66759L18.1278 6.9616C17.5245 8.02677 16.9175 9.08979 16.3067 10.1506C15.8184 10.9996 15.3234 11.8446 14.8217 12.6857C14.6337 13.0021 14.4417 13.3161 14.2457 13.6277C14.0957 13.8632 13.9487 14.0867 13.8407 14.2127C13.4532 14.6666 12.9013 14.948 12.3063 14.995C11.7113 15.042 11.1221 14.8507 10.6681 14.4632C10.2142 14.0757 9.93282 13.5238 9.88584 12.9288C9.83886 12.3338 10.0302 11.7446 10.4176 11.2907C10.5256 11.1647 10.7221 10.9832 10.9322 10.7987C11.1572 10.5991 11.4467 10.3546 11.7722 10.0801C12.4262 9.53413 13.2452 8.86512 14.0432 8.22011C14.995 7.45015 15.95 6.68413 16.9082 5.92208L17.1737 5.71208V5.71058Z" fill="#212121"/>
</svg>
