<svg width="11" height="11" viewBox="0 0 11 11" fill="none" xmlns="http://www.w3.org/2000/svg">
<path d="M6.79146 5.4986L10.7294 1.56978C10.9019 1.39733 10.9988 1.16344 10.9988 0.919556C10.9988 0.675675 10.9019 0.441782 10.7294 0.269332C10.557 0.0968816 10.3231 0 10.0792 0C9.83533 0 9.60144 0.0968816 9.42899 0.269332L5.50017 4.20731L1.57134 0.269332C1.39889 0.0968816 1.165 -1.81706e-09 0.921119 0C0.677238 1.81706e-09 0.443345 0.0968816 0.270895 0.269332C0.0984445 0.441782 0.00156292 0.675675 0.00156292 0.919556C0.00156292 1.16344 0.0984445 1.39733 0.270895 1.56978L4.20887 5.4986L0.270895 9.42742C0.185057 9.51256 0.116927 9.61385 0.0704323 9.72545C0.0239379 9.83705 0 9.95675 0 10.0776C0 10.1985 0.0239379 10.3182 0.0704323 10.4298C0.116927 10.5414 0.185057 10.6427 0.270895 10.7279C0.356031 10.8137 0.457321 10.8818 0.56892 10.9283C0.68052 10.9748 0.800222 10.9988 0.921119 10.9988C1.04202 10.9988 1.16172 10.9748 1.27332 10.9283C1.38492 10.8818 1.48621 10.8137 1.57134 10.7279L5.50017 6.78989L9.42899 10.7279C9.51412 10.8137 9.61541 10.8818 9.72701 10.9283C9.83861 10.9748 9.95831 10.9988 10.0792 10.9988C10.2001 10.9988 10.3198 10.9748 10.4314 10.9283C10.543 10.8818 10.6443 10.8137 10.7294 10.7279C10.8153 10.6427 10.8834 10.5414 10.9299 10.4298C10.9764 10.3182 11.0003 10.1985 11.0003 10.0776C11.0003 9.95675 10.9764 9.83705 10.9299 9.72545C10.8834 9.61385 10.8153 9.51256 10.7294 9.42742L6.79146 5.4986Z" fill="#212121"/>
</svg>
