<svg width="23" height="25" viewBox="0 0 23 25" fill="none" xmlns="http://www.w3.org/2000/svg">
<path d="M4.84203 20.0614C7.51242 20.0614 9.68407 17.8898 9.68407 15.2194V2.93879L20.5786 6.89957V15.8937C19.8461 15.4572 19.0103 15.2244 18.1576 15.2194C15.4872 15.2194 13.3156 17.391 13.3156 20.0614C13.3156 22.7318 15.4872 24.9035 18.1576 24.9035C20.828 24.9035 22.9997 22.7318 22.9997 20.0614V6.05222C22.9998 5.80385 22.9235 5.56147 22.7809 5.35808C22.6384 5.15468 22.4367 5.00016 22.2031 4.91555L8.88755 0.0735137C8.70476 0.00668995 8.50853 -0.0150267 8.31555 0.0102084C8.12257 0.0354436 7.93853 0.106885 7.77906 0.218464C7.61959 0.330043 7.48941 0.478463 7.39958 0.651116C7.30974 0.823769 7.26291 1.01555 7.26305 1.21018V11.0516C6.53053 10.6152 5.6947 10.3824 4.84203 10.3774C2.17165 10.3774 0 12.549 0 15.2194C0 17.8898 2.17165 20.0614 4.84203 20.0614Z" fill="#212121"/>
</svg>
