<svg width="24" height="19" viewBox="0 0 24 19" fill="none" xmlns="http://www.w3.org/2000/svg">
<path d="M1.1875 18.9998H1.20141C1.85546 18.9998 2.38891 18.4664 2.38891 17.8123C2.38891 17.1583 1.85546 16.6248 1.20141 16.6248H1.1875C0.533445 16.6248 0 17.1583 0 17.8123C0 18.4664 0.533445 18.9998 1.1875 18.9998Z" fill="#212121"/>
<path d="M7.12497 17.8125C7.12497 14.533 4.46702 11.875 1.1875 11.875C0.533445 11.875 0 12.4085 0 13.0625C0 13.7166 0.533445 14.25 1.1875 14.25C3.15428 14.2547 4.74534 15.8457 4.74998 17.8125C4.74998 18.4666 5.28342 19 5.93747 19C6.59152 19 7.12497 18.4666 7.12497 17.8125Z" fill="#212121"/>
<path d="M11.8749 17.8124C11.8749 11.9074 7.0925 7.12497 1.1875 7.12497C0.533445 7.12497 0 7.65841 0 8.31246C0 8.96651 0.533445 9.49996 1.1875 9.49996C3.48827 9.49996 5.55711 10.4277 7.06467 11.9353C8.57223 13.4428 9.49996 15.5117 9.49996 17.8124C9.49996 18.4665 10.0334 18.9999 10.6875 18.9999C11.3415 18.9999 11.8749 18.4665 11.8749 17.8124Z" fill="#212121"/>
<path d="M15.4377 18.9999H19.0002C21.6257 18.9999 23.7502 16.8754 23.7502 14.2499V4.74998C23.7502 2.1245 21.6257 0 19.0002 0H4.75026H4.74098C2.74636 0.0185546 0.974395 1.28491 0.306429 3.1682C0.0884126 3.78514 0.413118 4.46702 1.03006 4.68504C1.647 4.90306 2.32888 4.57835 2.5469 3.96141C2.88088 3.01976 3.76686 2.38891 4.76417 2.37963H4.7549H19.0048C20.3176 2.38427 21.3752 3.44188 21.3798 4.75462V14.2546C21.3752 15.5673 20.3176 16.6249 19.0048 16.6296H15.4423C14.7883 16.6296 14.2549 17.163 14.2549 17.8171C14.2502 18.4665 14.7837 18.9999 15.4377 18.9999Z" fill="#212121"/>
</svg>
