<svg width="27" height="26" viewBox="0 0 27 26" fill="none" xmlns="http://www.w3.org/2000/svg">
<path fill-rule="evenodd" clip-rule="evenodd" d="M18.6973 0.000215555C19.5491 0.000215555 20.3996 0.120364 21.2083 0.391711C26.1911 2.01169 27.9865 7.47913 26.4867 12.2581C25.6362 14.7002 24.2457 16.929 22.4246 18.7501C19.8178 21.2746 16.9572 23.5156 13.8779 25.4461L13.5404 25.6499L13.1894 25.4326C10.0992 23.5156 7.22243 21.2746 4.59132 18.7366C2.78234 16.9155 1.39051 14.7002 0.526516 12.2581C-0.998965 7.47913 0.796513 2.01169 5.8333 0.363361C6.2248 0.228363 6.62844 0.133864 7.03344 0.0812146H7.19543C7.57478 0.0258652 7.95143 0.000215555 8.32942 0.000215555H8.47792C9.32841 0.0258652 10.1519 0.174363 10.9497 0.44571H11.0294C11.0834 0.47136 11.1239 0.499709 11.1509 0.525359C11.4492 0.621208 11.7314 0.729207 12.0014 0.877705L12.5144 1.1072C12.6383 1.17331 12.7775 1.27433 12.8977 1.36163C12.9739 1.41695 13.0425 1.46676 13.0949 1.4987C13.1169 1.5117 13.1393 1.52477 13.1619 1.53794C13.2776 1.60551 13.3982 1.6759 13.4999 1.75384C14.9997 0.607708 16.8208 -0.0132843 18.6973 0.000215555ZM22.2883 9.7201C22.8417 9.70525 23.3142 9.2611 23.3547 8.69276V8.53211C23.3952 6.64078 22.2491 4.92766 20.5063 4.26616C19.9528 4.07582 19.3453 4.37416 19.1428 4.94116C18.9538 5.50815 19.2508 6.12914 19.8178 6.33029C20.6831 6.65428 21.2623 7.50612 21.2623 8.44976V8.49161C21.2366 8.80076 21.3298 9.0991 21.5188 9.3286C21.7078 9.5581 21.9913 9.69175 22.2883 9.7201Z" fill="white"/>
</svg>
