<svg width="17" height="14" viewBox="0 0 17 14" fill="none" xmlns="http://www.w3.org/2000/svg">
<path d="M7.14464 9.45597L7.05809 9.58186C6.53336 10.3156 5.84147 10.9138 5.03965 11.327C4.23784 11.7402 3.34915 11.9566 2.44712 11.9582H0.629484C0.462534 11.9582 0.302423 11.8918 0.184372 11.7738C0.0663204 11.6557 0 11.4956 0 11.3287C0 11.1617 0.0663204 11.0016 0.184372 10.8836C0.302423 10.7655 0.462534 10.6992 0.629484 10.6992H2.44712C3.1478 10.6973 3.83796 10.5285 4.46051 10.207C5.08307 9.88545 5.62014 9.42033 6.02731 8.85009L6.12173 8.72419C6.16807 8.6529 6.22837 8.59173 6.299 8.54438C6.36962 8.49703 6.44911 8.46448 6.53266 8.44869C6.61621 8.4329 6.7021 8.43421 6.78513 8.45252C6.86817 8.47084 6.94663 8.50579 7.01579 8.55526C7.08494 8.60474 7.14336 8.66771 7.18751 8.74038C7.23166 8.81305 7.26063 8.89391 7.27267 8.97808C7.28472 9.06226 7.27958 9.148 7.25758 9.23013C7.23557 9.31226 7.19715 9.38909 7.14464 9.45597ZM9.36357 5.2699C9.43114 5.31828 9.50761 5.35281 9.58858 5.37149C9.66956 5.39016 9.75343 5.39263 9.83536 5.37873C9.91728 5.36483 9.99565 5.33484 10.0659 5.29051C10.1362 5.24617 10.197 5.18835 10.2449 5.1204L10.3393 4.9945C10.7385 4.43296 11.2641 3.97306 11.8737 3.65188C12.4832 3.3307 13.1597 3.15721 13.8486 3.14539V4.40436C13.8483 4.52864 13.8847 4.65025 13.9533 4.75386C14.0219 4.85748 14.1196 4.93848 14.2342 4.98663C14.3119 5.01747 14.3946 5.03348 14.4781 5.03384C14.6453 5.03314 14.8058 4.96837 14.9266 4.85287L16.8151 2.96441C16.9333 2.84507 16.9996 2.68388 16.9996 2.51591C16.9996 2.34793 16.9333 2.18675 16.8151 2.0674L14.9266 0.178948C14.8356 0.0935529 14.7223 0.0356708 14.5998 0.0119987C14.4772 -0.0116735 14.3505 -0.00016847 14.2342 0.045183C14.1196 0.0933396 14.0219 0.174331 13.9533 0.27795C13.8847 0.38157 13.8483 0.50318 13.8486 0.627456V1.88642C12.9586 1.89915 12.084 2.12083 11.2954 2.53359C10.5068 2.94635 9.8262 3.53865 9.30849 4.26272L9.22194 4.38862C9.17316 4.45571 9.13812 4.53177 9.11883 4.61245C9.09954 4.69312 9.09639 4.77681 9.10955 4.8587C9.12271 4.9406 9.15193 5.01909 9.19553 5.08965C9.23912 5.16022 9.29623 5.22148 9.36357 5.2699ZM14.9266 8.99172C14.8356 8.90633 14.7223 8.84845 14.5998 8.82477C14.4772 8.8011 14.3505 8.81261 14.2342 8.85796C14.1196 8.90611 14.0219 8.98711 13.9533 9.09073C13.8847 9.19434 13.8483 9.31595 13.8486 9.44023V10.6992C13.1597 10.6874 12.4832 10.5139 11.8737 10.1927C11.2641 9.87152 10.7385 9.41163 10.3393 8.85009L7.05809 4.26272C6.53336 3.52902 5.84147 2.93081 5.03965 2.51759C4.23784 2.10436 3.34915 1.88801 2.44712 1.88642H0.629484C0.462534 1.88642 0.302423 1.95274 0.184372 2.0708C0.0663204 2.18885 0 2.34896 0 2.51591C0 2.68286 0.0663204 2.84297 0.184372 2.96102C0.302423 3.07907 0.462534 3.14539 0.629484 3.14539H2.44712C3.1478 3.14734 3.83796 3.31606 4.46051 3.6376C5.08307 3.95914 5.62014 4.42426 6.02731 4.9945L9.30849 9.58186C9.8262 10.3059 10.5068 10.8982 11.2954 11.311C12.084 11.7238 12.9586 11.9454 13.8486 11.9582V13.2171C13.8483 13.3414 13.8847 13.463 13.9533 13.5666C14.0219 13.6703 14.1196 13.7512 14.2342 13.7994C14.3119 13.8302 14.3946 13.8463 14.4781 13.8466C14.6453 13.8459 14.8058 13.7811 14.9266 13.6656L16.8151 11.7772C16.9333 11.6578 16.9996 11.4967 16.9996 11.3287C16.9996 11.1607 16.9333 10.9995 16.8151 10.8802L14.9266 8.99172Z" fill="white"/>
</svg>
