<svg width="17" height="17" viewBox="0 0 17 17" fill="none" xmlns="http://www.w3.org/2000/svg">
<path fill-rule="evenodd" clip-rule="evenodd" d="M4.81601 1.27498C2.66555 1.27498 1.27498 2.748 1.27498 5.0285V11.9712C1.27498 14.2517 2.66555 15.7247 4.81601 15.7247H12.1845C14.335 15.7247 15.7247 14.2517 15.7247 11.9712V5.0285C15.7247 2.748 14.335 1.27498 12.1845 1.27498H4.81601ZM12.1845 16.9997H4.81601C1.93541 16.9997 0 14.9784 0 11.9712V5.0285C0 2.02126 1.93541 0 4.81601 0H12.1845C15.0651 0 16.9997 2.02126 16.9997 5.0285V11.9712C16.9997 14.9784 15.0651 16.9997 12.1845 16.9997Z" fill="#212121"/>
<path fill-rule="evenodd" clip-rule="evenodd" d="M8.4995 12.6102C8.14761 12.6102 7.86201 12.3246 7.86201 11.9728V5.02669C7.86201 4.6748 8.14761 4.3892 8.4995 4.3892C8.8514 4.3892 9.13699 4.6748 9.13699 5.02669V11.9728C9.13699 12.3246 8.8514 12.6102 8.4995 12.6102Z" fill="#212121"/>
<path fill-rule="evenodd" clip-rule="evenodd" d="M8.49958 12.6109C8.33044 12.6109 8.16724 12.5437 8.04824 12.423L4.8625 9.2237C4.61346 8.97381 4.61516 8.57006 4.8642 8.32187C5.1141 8.07452 5.51699 8.07282 5.76519 8.32357L8.49958 11.0699L11.234 8.32357C11.483 8.07282 11.8859 8.07452 12.135 8.32187C12.384 8.57006 12.3857 8.97381 12.1367 9.2237L8.95092 12.423C8.83193 12.5437 8.66873 12.6109 8.49958 12.6109Z" fill="#212121"/>
</svg>
