<svg width="22" height="22" viewBox="0 0 22 22" fill="none" xmlns="http://www.w3.org/2000/svg">
<path d="M20.6253 9.62515H12.3752V1.37502C12.3752 1.01034 12.2303 0.660601 11.9725 0.402735C11.7146 0.144868 11.3648 0 11.0002 0C10.6355 0 10.2857 0.144868 10.0279 0.402735C9.77001 0.660601 9.62515 1.01034 9.62515 1.37502V9.62515H1.37502C1.01034 9.62515 0.660601 9.77001 0.402735 10.0279C0.144868 10.2857 0 10.6355 0 11.0002C0 11.3648 0.144868 11.7146 0.402735 11.9725C0.660601 12.2303 1.01034 12.3752 1.37502 12.3752H9.62515V20.6253C9.62515 20.99 9.77001 21.3397 10.0279 21.5976C10.2857 21.8555 10.6355 22.0003 11.0002 22.0003C11.3648 22.0003 11.7146 21.8555 11.9725 21.5976C12.2303 21.3397 12.3752 20.99 12.3752 20.6253V12.3752H20.6253C20.99 12.3752 21.3397 12.2303 21.5976 11.9725C21.8555 11.7146 22.0003 11.3648 22.0003 11.0002C22.0003 10.6355 21.8555 10.2857 21.5976 10.0279C21.3397 9.77001 20.99 9.62515 20.6253 9.62515Z" fill="white"/>
</svg>
