<svg width="88" height="60" viewBox="0 0 88 60" fill="none" xmlns="http://www.w3.org/2000/svg">
<path d="M0 24C0 16.5449 0 12.8174 1.21793 9.87707C2.84183 5.95662 5.95662 2.84183 9.87707 1.21793C12.8174 0 16.5449 0 24 0H64C71.4551 0 75.1826 0 78.1229 1.21793C82.0434 2.84183 85.1582 5.95662 86.7821 9.87707C88 12.8174 88 16.5449 88 24V36C88 43.4551 88 47.1826 86.7821 50.1229C85.1582 54.0434 82.0434 57.1582 78.1229 58.7821C75.1826 60 71.4551 60 64 60H24C16.5449 60 12.8174 60 9.87707 58.7821C5.95662 57.1582 2.84183 54.0434 1.21793 50.1229C0 47.1826 0 43.4551 0 36V24Z" fill="#1F222A"/>
<g clip-path="url(#clip0_1343_59916)">
<path d="M48.7729 18.012C48.7219 17.955 46.8844 18.0345 45.2854 19.77C43.6864 21.504 43.9324 23.493 43.9684 23.544C44.0044 23.595 46.2484 23.6745 47.6809 21.657C49.1134 19.6395 48.8239 18.0705 48.7729 18.012ZM53.7439 35.6115C53.6719 35.4675 50.2564 33.7605 50.5744 30.4785C50.8924 27.195 53.0869 26.295 53.1214 26.1975C53.1559 26.1 52.2259 25.0125 51.2404 24.462C50.5168 24.0739 49.716 23.8515 48.8959 23.811C48.7339 23.8065 48.1714 23.6685 47.0149 23.985C46.2529 24.1935 44.5354 24.8685 44.0629 24.8955C43.5889 24.9225 42.1789 24.1125 40.6624 23.898C39.6919 23.7105 38.6629 24.0945 37.9264 24.39C37.1914 24.684 35.7934 25.521 34.8154 27.7455C33.8374 29.9685 34.3489 33.4905 34.7149 34.5855C35.0809 35.679 35.6524 37.4715 36.6244 38.7795C37.4884 40.2555 38.6344 41.28 39.1129 41.628C39.5914 41.976 40.9414 42.207 41.8774 41.7285C42.6304 41.2665 43.9894 41.001 44.5264 41.0205C45.0619 41.04 46.1179 41.2515 47.1994 41.829C48.0559 42.1245 48.8659 42.0015 49.6774 41.6715C50.4889 41.34 51.6634 40.083 53.0344 37.5345C53.5549 36.3495 53.7919 35.709 53.7439 35.6115Z" fill="white"/>
<path d="M48.7729 18.012C48.7219 17.955 46.8844 18.0345 45.2854 19.77C43.6864 21.504 43.9324 23.493 43.9684 23.544C44.0044 23.595 46.2484 23.6745 47.6809 21.657C49.1134 19.6395 48.8239 18.0705 48.7729 18.012ZM53.7439 35.6115C53.6719 35.4675 50.2564 33.7605 50.5744 30.4785C50.8924 27.195 53.0869 26.295 53.1214 26.1975C53.1559 26.1 52.2259 25.0125 51.2404 24.462C50.5168 24.0739 49.716 23.8515 48.8959 23.811C48.7339 23.8065 48.1714 23.6685 47.0149 23.985C46.2529 24.1935 44.5354 24.8685 44.0629 24.8955C43.5889 24.9225 42.1789 24.1125 40.6624 23.898C39.6919 23.7105 38.6629 24.0945 37.9264 24.39C37.1914 24.684 35.7934 25.521 34.8154 27.7455C33.8374 29.9685 34.3489 33.4905 34.7149 34.5855C35.0809 35.679 35.6524 37.4715 36.6244 38.7795C37.4884 40.2555 38.6344 41.28 39.1129 41.628C39.5914 41.976 40.9414 42.207 41.8774 41.7285C42.6304 41.2665 43.9894 41.001 44.5264 41.0205C45.0619 41.04 46.1179 41.2515 47.1994 41.829C48.0559 42.1245 48.8659 42.0015 49.6774 41.6715C50.4889 41.34 51.6634 40.083 53.0344 37.5345C53.5549 36.3495 53.7919 35.709 53.7439 35.6115Z" fill="white"/>
</g>
<path d="M9.87707 58.7821L10.2597 57.8582L9.87707 58.7821ZM1.21793 50.1229L2.14181 49.7403L1.21793 50.1229ZM86.7821 50.1229L85.8582 49.7403L86.7821 50.1229ZM78.1229 58.7821L78.5056 59.706L78.1229 58.7821ZM78.1229 1.21793L78.5056 0.294048L78.1229 1.21793ZM86.7821 9.87707L85.8582 10.2597L86.7821 9.87707ZM24 1H64V-1H24V1ZM87 24V36H89V24H87ZM64 59H24V61H64V59ZM1 36V24H-1V36H1ZM24 59C20.2588 59 17.503 58.9995 15.3136 58.8501C13.1332 58.7013 11.5878 58.4083 10.2597 57.8582L9.49438 59.706C11.1067 60.3738 12.8952 60.6897 15.1774 60.8454C17.4507 61.0005 20.2861 61 24 61V59ZM-1 36C-1 39.7139 -1.00054 42.5493 -0.84544 44.8226C-0.689725 47.1048 -0.373799 48.8933 0.294048 50.5056L2.14181 49.7403C1.59173 48.4122 1.29869 46.8668 1.14992 44.6864C1.00054 42.497 1 39.7412 1 36H-1ZM10.2597 57.8582C6.58433 56.3358 3.66422 53.4157 2.14181 49.7403L0.294048 50.5056C2.01945 54.6711 5.3289 57.9806 9.49438 59.706L10.2597 57.8582ZM87 36C87 39.7412 86.9995 42.497 86.8501 44.6864C86.7013 46.8668 86.4083 48.4122 85.8582 49.7403L87.706 50.5056C88.3738 48.8933 88.6897 47.1048 88.8454 44.8226C89.0005 42.5493 89 39.7139 89 36H87ZM64 61C67.7138 61 70.5493 61.0005 72.8226 60.8454C75.1048 60.6897 76.8933 60.3738 78.5056 59.706L77.7403 57.8582C76.4122 58.4083 74.8668 58.7013 72.6864 58.8501C70.497 58.9995 67.7412 59 64 59V61ZM85.8582 49.7403C84.3358 53.4157 81.4157 56.3358 77.7403 57.8582L78.5056 59.706C82.6711 57.9806 85.9806 54.6711 87.706 50.5056L85.8582 49.7403ZM64 1C67.7412 1 70.497 1.00054 72.6864 1.14992C74.8668 1.29869 76.4122 1.59173 77.7403 2.14181L78.5056 0.294048C76.8933 -0.373799 75.1048 -0.689725 72.8226 -0.84544C70.5493 -1.00054 67.7139 -1 64 -1V1ZM89 24C89 20.2861 89.0005 17.4507 88.8454 15.1774C88.6897 12.8952 88.3738 11.1067 87.706 9.49438L85.8582 10.2597C86.4083 11.5878 86.7013 13.1332 86.8501 15.3136C86.9995 17.503 87 20.2588 87 24H89ZM77.7403 2.14181C81.4157 3.66422 84.3358 6.58433 85.8582 10.2597L87.706 9.49438C85.9806 5.3289 82.6711 2.01945 78.5056 0.294048L77.7403 2.14181ZM24 -1C20.2862 -1 17.4507 -1.00054 15.1774 -0.84544C12.8952 -0.689725 11.1067 -0.373799 9.49438 0.294048L10.2597 2.14181C11.5878 1.59173 13.1332 1.29869 15.3136 1.14992C17.503 1.00054 20.2588 1 24 1V-1ZM1 24C1 20.2588 1.00054 17.503 1.14992 15.3136C1.29869 13.1332 1.59173 11.5878 2.14181 10.2597L0.294048 9.49438C-0.373799 11.1067 -0.689725 12.8952 -0.84544 15.1774C-1.00054 17.4507 -1 20.2861 -1 24H1ZM9.49438 0.294048C5.3289 2.01945 2.01945 5.3289 0.294048 9.49438L2.14181 10.2597C3.66422 6.58433 6.58433 3.66422 10.2597 2.14181L9.49438 0.294048Z" fill="#35383F"/>
<defs>
<clipPath id="clip0_1343_59916">
<rect width="24" height="24" fill="white" transform="translate(32 18)"/>
</clipPath>
</defs>
</svg>
