<svg width="15" height="17" viewBox="0 0 15 17" fill="none" xmlns="http://www.w3.org/2000/svg">
<path fill-rule="evenodd" clip-rule="evenodd" d="M11.9194 4.58665V5.89C13.3834 6.34698 14.4501 7.67229 14.4501 9.25523V13.4516C14.4501 15.4113 12.8255 17.0002 10.8225 17.0002H3.62851C1.62467 17.0002 0 15.4113 0 13.4516V9.25523C0 7.67229 1.06757 6.34698 2.53072 5.89V4.58665C2.53936 2.05259 4.63821 0 7.21212 0C9.82057 0 11.9194 2.05259 11.9194 4.58665ZM7.22939 1.4782C8.98276 1.4782 10.4079 2.87194 10.4079 4.58665V5.7067H4.04224V4.56976C4.05088 2.86349 5.47602 1.4782 7.22939 1.4782ZM7.98083 12.2868C7.98083 12.7007 7.64398 13.0301 7.22075 13.0301C6.80616 13.0301 6.46931 12.7007 6.46931 12.2868V10.4116C6.46931 10.0062 6.80616 9.67673 7.22075 9.67673C7.64398 9.67673 7.98083 10.0062 7.98083 10.4116V12.2868Z" fill="#9E9E9E"/>
</svg>
