<svg width="24" height="28" viewBox="0 0 24 28" fill="none" xmlns="http://www.w3.org/2000/svg">
<path d="M1.17625 15.8868C1.61854 15.8868 1.97375 16.2459 2.0091 16.6868C2.14521 18.3847 2.7129 20.0246 3.66414 21.4482C4.7641 23.0945 6.32752 24.3775 8.15668 25.1352C9.98584 25.8928 11.9986 26.0911 13.9404 25.7048C15.8823 25.3186 17.6659 24.3652 19.0659 22.9652C20.4659 21.5652 21.4193 19.7815 21.8056 17.8397C22.1918 15.8979 21.9936 13.8851 21.2359 12.0559C20.4783 10.2268 19.1952 8.66336 17.549 7.56341C15.9028 6.46345 13.9674 5.87635 11.9875 5.87635H8.78417C8.34188 5.87635 7.98333 6.23489 7.98333 6.67718V8.94817C7.98333 9.66164 7.12072 10.0189 6.61623 9.51445L2.54336 5.44158C2.23061 5.12883 2.23061 4.62177 2.54336 4.30903L6.61622 0.236164C7.12072 -0.268333 7.98333 0.088972 7.98333 0.802438V3.07343C7.98333 3.51572 8.34188 3.87426 8.78417 3.87426H11.9875C14.3633 3.87426 16.6858 4.57878 18.6613 5.89873C20.6367 7.21868 22.1764 9.09478 23.0856 11.2898C23.9948 13.4848 24.2327 15.9001 23.7692 18.2303C23.3057 20.5605 22.1616 22.7009 20.4816 24.3809C18.8016 26.0609 16.6612 27.2049 14.331 27.6684C12.0008 28.1319 9.58551 27.8941 7.39052 26.9849C5.19552 26.0757 3.31942 24.536 1.99947 22.5605C0.828181 20.8076 0.141499 18.7813 0.00168284 16.687C-0.0277789 16.2457 0.333546 15.8868 0.775834 15.8868H1.17625Z" fill="#212121"/>
<path d="M15.6464 20.0212C15.204 20.0321 14.7653 19.9395 14.365 19.7509C14.0096 19.5706 13.7037 19.3059 13.4741 18.9801C13.2224 18.6001 13.0457 18.1753 12.9536 17.7288C12.8353 17.1762 12.7782 16.6122 12.7834 16.0471C12.7793 15.482 12.8364 14.9182 12.9536 14.3653C13.0475 13.9194 13.2241 13.495 13.4741 13.114C13.7037 12.7883 14.0096 12.5236 14.365 12.3432C14.7653 12.1547 15.204 12.0621 15.6464 12.073C16.0623 12.0413 16.4793 12.1167 16.8578 12.2919C17.2363 12.4672 17.5637 12.7364 17.8086 13.074C18.3248 13.9618 18.5685 14.9818 18.5093 16.0071C18.5685 17.0323 18.3248 18.0523 17.8086 18.9401C17.573 19.2924 17.2497 19.5774 16.8706 19.7669C16.4915 19.9565 16.0696 20.0441 15.6464 20.0212ZM15.6464 18.8C15.8482 18.812 16.0493 18.7667 16.2264 18.6693C16.4036 18.5718 16.5495 18.4263 16.6474 18.2494C16.8866 17.7812 17.0135 17.2636 17.0178 16.7378V15.3564C17.0394 14.8401 16.94 14.3258 16.7275 13.8548C16.6156 13.6834 16.4627 13.5425 16.2827 13.4451C16.1026 13.3476 15.9011 13.2965 15.6964 13.2965C15.4917 13.2965 15.2902 13.3476 15.1102 13.4451C14.9301 13.5425 14.7772 13.6834 14.6653 13.8548C14.4528 14.3258 14.3534 14.8401 14.375 15.3564V16.7378C14.3544 17.2573 14.4537 17.7745 14.6653 18.2494C14.7608 18.4239 14.9034 18.568 15.0769 18.6654C15.2503 18.7627 15.4477 18.8094 15.6464 18.8ZM6.63699 19.8911V18.7099H8.63907V13.5145L6.77714 14.5155L6.22656 13.4544L8.54898 12.153H10.0105V18.6598H11.7924V19.8911H6.63699Z" fill="#212121"/>
</svg>
