<svg width="26" height="21" viewBox="0 0 26 21" fill="none" xmlns="http://www.w3.org/2000/svg">
<path fill-rule="evenodd" clip-rule="evenodd" d="M12.7445 20.2458C8.94551 20.2458 5.70014 19.671 5.70014 17.3698C5.70014 15.0686 8.9244 13.0654 12.7445 13.0654C16.5435 13.0654 19.7888 15.0499 19.7888 17.3499C19.7888 19.6499 16.5646 20.2458 12.7445 20.2458Z" stroke="#212121" stroke-width="1.5" stroke-linecap="round" stroke-linejoin="round"/>
<path fill-rule="evenodd" clip-rule="evenodd" d="M12.7438 9.78403C15.2374 9.78403 17.2594 7.76315 17.2594 5.2696C17.2594 2.77605 15.2374 0.753997 12.7438 0.753997C10.2503 0.753997 8.22821 2.77605 8.22821 5.2696C8.22117 7.75377 10.2268 9.77582 12.7121 9.78403H12.7438Z" stroke="#212121" stroke-width="1.5" stroke-linecap="round" stroke-linejoin="round"/>
<path d="M20.2385 8.54383C21.6893 8.15561 22.759 6.83259 22.759 5.25741C22.759 3.6142 21.5943 2.24192 20.0438 1.92525" stroke="#212121" stroke-width="1.5" stroke-linecap="round" stroke-linejoin="round"/>
<path d="M20.9195 12.2417C22.9767 12.2417 24.7337 13.6362 24.7337 14.8818C24.7337 15.6149 24.1273 16.4136 23.2078 16.6294" stroke="#212121" stroke-width="1.5" stroke-linecap="round" stroke-linejoin="round"/>
<path d="M5.25101 8.54383C3.79898 8.15561 2.72931 6.83259 2.72931 5.25741C2.72931 3.6142 3.89516 2.24192 5.44454 1.92525" stroke="#212121" stroke-width="1.5" stroke-linecap="round" stroke-linejoin="round"/>
<path d="M4.56822 12.2417C2.51098 12.2417 0.753997 13.6362 0.753997 14.8818C0.753997 15.6149 1.36038 16.4136 2.28109 16.6294" stroke="#212121" stroke-width="1.5" stroke-linecap="round" stroke-linejoin="round"/>
</svg>
