<svg width="15" height="17" viewBox="0 0 15 17" fill="none" xmlns="http://www.w3.org/2000/svg">
<path fill-rule="evenodd" clip-rule="evenodd" d="M11.9193 4.58662V5.88996C13.3833 6.34693 14.45 7.67223 14.45 9.25517V13.4515C14.45 15.4112 12.8254 17 10.8224 17H3.62849C1.62466 17 0 15.4112 0 13.4515V9.25517C0 7.67223 1.06756 6.34693 2.5307 5.88996V4.58662C2.53934 2.05257 4.63818 0 7.21206 0C9.8205 0 11.9193 2.05257 11.9193 4.58662ZM7.22934 1.47819C8.98269 1.47819 10.4078 2.87191 10.4078 4.58662V5.70666H4.04221V4.56972C4.05085 2.86347 5.47598 1.47819 7.22934 1.47819ZM7.98077 12.2867C7.98077 12.7006 7.64392 13.03 7.2207 13.03C6.80611 13.03 6.46926 12.7006 6.46926 12.2867V10.4115C6.46926 10.0061 6.80611 9.67666 7.2207 9.67666C7.64392 9.67666 7.98077 10.0061 7.98077 10.4115V12.2867Z" fill="#212121"/>
</svg>
