<svg width="17" height="16" viewBox="0 0 17 16" fill="none" xmlns="http://www.w3.org/2000/svg">
<path fill-rule="evenodd" clip-rule="evenodd" d="M11.6634 0.000134463C12.1948 0.000134463 12.7253 0.0750834 13.2298 0.24435C16.338 1.2549 17.4581 4.66549 16.5225 7.64661C15.9919 9.17001 15.1245 10.5603 13.9885 11.6964C12.3624 13.2711 10.5779 14.6691 8.65703 15.8733L8.4465 16.0005L8.22755 15.8649C6.29993 14.6691 4.50537 13.2711 2.86407 11.688C1.73563 10.5519 0.8674 9.17001 0.328442 7.64661C-0.623157 4.66549 0.496866 1.2549 3.63883 0.226665C3.88304 0.142453 4.13484 0.0835046 4.38747 0.0506618H4.48853C4.72516 0.0161348 4.96012 0.000134463 5.19591 0.000134463H5.28854C5.81908 0.0161348 6.33278 0.108768 6.83047 0.278035H6.88016C6.91384 0.294035 6.9391 0.31172 6.95595 0.32772C7.14206 0.387511 7.31806 0.454881 7.48648 0.547514L7.80649 0.690675C7.88382 0.731915 7.97061 0.794929 8.04562 0.849389C8.09314 0.883895 8.13594 0.914966 8.1686 0.93489C8.18235 0.942999 8.19632 0.951153 8.2104 0.959374C8.2826 1.00152 8.35782 1.04543 8.42124 1.09405C9.35684 0.37909 10.4929 -0.00828676 11.6634 0.000134463ZM13.9035 6.06342C14.2487 6.05415 14.5435 5.77709 14.5687 5.42256V5.32235C14.594 4.14254 13.879 3.07388 12.7919 2.66124C12.4466 2.5425 12.0676 2.72861 11.9413 3.0823C11.8234 3.43599 12.0087 3.82337 12.3624 3.94885C12.9022 4.15096 13.2634 4.68234 13.2634 5.27098V5.29709C13.2474 5.48993 13.3056 5.67604 13.4234 5.8192C13.5413 5.96236 13.7182 6.04573 13.9035 6.06342Z" fill="#06C149"/>
</svg>
