<svg width="276" height="250" viewBox="0 0 276 250" fill="none" xmlns="http://www.w3.org/2000/svg">
<g clip-path="url(#clip0_929_19899)">
<path d="M190.528 249.37H112.296C100.562 249.37 91.0156 239.824 91.0156 228.09V21.2801C91.0156 9.54628 100.562 0 112.296 0H190.528C202.261 0 211.808 9.54628 211.808 21.2801C213.264 104.329 215.747 197.33 211.808 228.09C211.808 239.824 202.261 249.37 190.528 249.37L190.528 249.37V249.37Z" fill="#3F3D56"/>
<path d="M212.898 76.0714C212.402 76.0714 211.998 76.4751 211.998 76.9716V105.78C211.998 106.276 212.402 106.68 212.898 106.68C213.395 106.68 213.798 106.276 213.798 105.78V76.9716C213.798 76.4751 213.395 76.0714 212.898 76.0714Z" fill="#3F3D56"/>
<path d="M209.782 21.2803V228.086C209.782 238.3 201.833 246.654 191.781 247.302H191.777C191.628 247.311 191.48 247.32 191.327 247.325C191.061 247.338 190.796 247.343 190.526 247.343C190.526 247.343 189.535 247.271 187.726 247.136C185.898 247.001 183.238 246.798 179.921 246.533C178.926 246.456 177.877 246.371 176.77 246.281C174.564 246.1 172.142 245.902 169.545 245.677C168.51 245.592 167.439 245.497 166.345 245.403C160.754 244.921 154.493 244.358 147.89 243.719C146.773 243.616 145.648 243.508 144.514 243.395C144.217 243.364 93.041 230.499 93.041 228.086V21.2803C93.041 10.6439 101.661 2.02392 112.297 2.02392H123.794C125.63 2.02392 127.107 3.45532 127.264 5.28734C127.278 5.40888 127.291 5.5304 127.314 5.65195C127.647 7.49298 129.335 8.77583 131.207 8.77583H171.616C173.488 8.77583 175.176 7.49298 175.509 5.65195C175.532 5.53041 175.545 5.40889 175.559 5.28734C175.716 3.45533 177.193 2.02392 179.029 2.02392H190.526C201.162 2.02392 209.782 10.6439 209.782 21.2803H209.782Z" fill="white"/>
<path d="M90.5653 54.4654C90.0688 54.4654 89.665 54.8692 89.665 55.3657V62.5677C89.665 63.0642 90.0688 63.468 90.5653 63.468C91.0618 63.468 91.4655 63.0642 91.4655 62.5677V55.3657C91.4655 54.8692 91.0618 54.4654 90.5653 54.4654V54.4654Z" fill="#3F3D56"/>
<path d="M90.5653 76.0714C90.0688 76.0714 89.665 76.4751 89.665 76.9716V90.9255C89.665 91.4221 90.0688 91.8258 90.5653 91.8258C91.0618 91.8258 91.4655 91.4221 91.4655 90.9255V76.9716C91.4655 76.4751 91.0618 76.0714 90.5653 76.0714V76.0714Z" fill="#3F3D56"/>
<path d="M90.5653 95.877C90.0688 95.877 89.665 96.2808 89.665 96.7773V110.731C89.665 111.228 90.0688 111.631 90.5653 111.631C91.0618 111.631 91.4655 111.228 91.4655 110.731V96.7773C91.4655 96.2808 91.0618 95.877 90.5653 95.877Z" fill="#3F3D56"/>
<path d="M123.498 5.17651H106.246C106.162 5.17651 106.095 5.24429 106.095 5.32789V7.27576C106.095 7.35937 106.162 7.42714 106.246 7.42714H123.498C123.582 7.42714 123.65 7.35937 123.65 7.27576V5.32789C123.65 5.24429 123.582 5.17651 123.498 5.17651Z" fill="#E6E6E6"/>
<path d="M181.875 7.42718C182.869 7.42718 183.675 6.62107 183.675 5.62668C183.675 4.63228 182.869 3.82617 181.875 3.82617C180.88 3.82617 180.074 4.63228 180.074 5.62668C180.074 6.62107 180.88 7.42718 181.875 7.42718Z" fill="#E6E6E6"/>
<path d="M186.826 7.42718C187.82 7.42718 188.626 6.62107 188.626 5.62668C188.626 4.63228 187.82 3.82617 186.826 3.82617C185.831 3.82617 185.025 4.63228 185.025 5.62668C185.025 6.62107 185.831 7.42718 186.826 7.42718Z" fill="#E6E6E6"/>
<path d="M191.777 7.42718C192.771 7.42718 193.577 6.62107 193.577 5.62668C193.577 4.63228 192.771 3.82617 191.777 3.82617C190.783 3.82617 189.976 4.63228 189.976 5.62668C189.976 6.62107 190.783 7.42718 191.777 7.42718Z" fill="#E6E6E6"/>
<path d="M6.98535 249.419C6.98535 249.741 7.244 250 7.5661 250H275.131C275.453 250 275.712 249.741 275.712 249.419C275.712 249.097 275.453 248.838 275.131 248.838H7.5661C7.244 248.838 6.98535 249.097 6.98535 249.419V249.419Z" fill="#CCCCCC"/>
<path d="M92.2973 245.605L86.8103 245.605L84.2002 224.44L92.2984 224.441L92.2973 245.605Z" fill="#FFB6B6"/>
<path d="M73.4983 245.481C73.3274 245.768 73.2373 246.697 73.2373 247.032C73.2373 248.06 74.071 248.894 75.0996 248.894H92.0919C92.7936 248.894 93.3624 248.325 93.3624 247.623V246.916C93.3624 246.916 94.203 244.79 92.4724 242.169C92.4724 242.169 90.3214 244.221 87.1073 241.007L86.1595 239.29L79.2987 244.308L75.4959 244.776C74.6639 244.878 73.9263 244.76 73.4983 245.481H73.4983V245.481H73.4983Z" fill="#2F2E41"/>
<path d="M61.9527 216.209L56.4658 216.191L53.9228 195.019L62.021 195.045L61.9527 216.209Z" fill="#FFB6B6"/>
<path d="M43.1546 216.025C42.9828 216.312 42.8897 217.24 42.8887 217.575C42.8854 218.603 43.7165 219.44 44.745 219.443L61.7373 219.497C62.4389 219.499 63.0096 218.932 63.0118 218.231L63.0141 217.523C63.0141 217.523 63.8614 215.4 62.1391 212.773C62.1391 212.773 59.9816 214.819 56.7778 211.594L55.8354 209.874L48.9587 214.87L45.1544 215.326C44.3221 215.426 43.5849 215.305 43.1546 216.025H43.1546V216.025Z" fill="#2F2E41"/>
<path d="M84.294 117.12L77.462 117.608C77.462 117.608 54.3331 130.758 52.3811 133.686C50.4291 136.614 47.7451 140.762 50.1851 145.154C52.6251 149.546 50.768 202.725 50.768 202.725L62.4276 200.087L69.898 144.448L85.514 142.252C85.514 142.252 90.882 153.833 88.93 163.414C86.978 172.996 86.002 178.852 86.002 178.852L83.562 235.459L93.078 235.215L101.618 182.756L116.258 141.276L97.226 118.828L84.294 117.12Z" fill="#2F2E41"/>
<path d="M52.7916 112.412C50.0132 113.929 48.5432 116.591 49.5081 118.359C50.473 120.127 53.5076 120.331 56.2859 118.815C57.5021 118.151 58.4675 117.268 59.0879 116.336L70.7799 109.763L67.5786 104.342L56.3923 111.397C55.273 111.415 54.0078 111.749 52.7916 112.412H52.7916Z" fill="#FFB6B6"/>
<path d="M117.966 57.0958L103.814 58.5598L102.35 63.4398L88.6857 70.7598L93.0777 101.504L89.6617 106.872L91.1257 112.24C91.1257 112.24 87.2217 112.728 87.7097 115.656L78.9257 117.12C78.9257 117.12 90.5762 119.498 93.047 131.241C95.5177 142.984 116.014 144.448 116.014 144.448L132.118 94.1837L133.582 64.4158L122.358 61.4878L117.966 57.0958Z" fill="#E6E6E6"/>
<path d="M92.2213 70.9875C92.2213 70.9875 87.6379 69.2425 86.0588 71.3431C84.4796 73.4436 74.0477 98.9321 74.0477 98.9321L58.7422 106.925L63.0462 114.421L82.7552 107.859L95.7587 84.0769L92.2213 70.9875V70.9875Z" fill="#E6E6E6"/>
<path d="M236.752 154.695V206.423C236.752 210.997 233.031 214.719 228.456 214.719H100.601C96.0261 214.719 92.3046 210.997 92.3046 206.423V154.695C92.3046 150.12 96.0261 146.399 100.601 146.399H228.456C233.031 146.399 236.752 150.12 236.752 154.695Z" fill="white"/>
<path d="M236.752 154.695V206.423C236.752 210.997 233.031 214.719 228.456 214.719H100.601C96.0261 214.719 92.3046 210.997 92.3046 206.423V154.695C92.3046 150.12 96.0261 146.399 100.601 146.399H228.456C233.031 146.399 236.752 150.12 236.752 154.695ZM228.456 213.743C232.499 213.743 235.776 210.465 235.776 206.423V180.343C235.776 162.135 221.016 147.375 202.808 147.375H100.601C96.5579 147.375 93.2806 150.652 93.2806 154.695V206.423C93.2806 210.465 96.5579 213.743 100.601 213.743H228.456Z" fill="#3F3D56"/>
<path d="M149.698 177.651H132.999C132.578 177.651 132.235 177.993 132.235 178.414C132.235 178.835 132.578 179.178 132.999 179.178H149.698C150.119 179.178 150.462 178.835 150.462 178.414C150.462 177.993 150.119 177.651 149.698 177.651Z" fill="#22BB9C"/>
<path d="M175.074 177.651H158.375C157.954 177.651 157.611 177.993 157.611 178.414C157.611 178.835 157.954 179.178 158.375 179.178H175.074C175.495 179.178 175.838 178.835 175.838 178.414C175.838 177.993 175.495 177.651 175.074 177.651Z" fill="#22BB9C"/>
<path d="M149.698 185.999H132.999C132.578 185.999 132.235 186.341 132.235 186.762C132.235 187.183 132.578 187.526 132.999 187.526H149.698C150.119 187.526 150.462 187.183 150.462 186.762C150.462 186.341 150.119 185.999 149.698 185.999Z" fill="#22BB9C"/>
<path d="M175.074 185.999H158.375C157.954 185.999 157.611 186.341 157.611 186.762C157.611 187.183 157.954 187.526 158.375 187.526H175.074C175.495 187.526 175.838 187.183 175.838 186.762C175.838 186.341 175.495 185.999 175.074 185.999Z" fill="#22BB9C"/>
<path d="M201.214 186.762C201.214 186.341 200.871 185.999 200.45 185.999H183.751C183.33 185.999 182.987 186.341 182.987 186.762C182.987 187.183 183.33 187.526 183.751 187.526H200.45C200.871 187.526 201.214 187.183 201.214 186.762Z" fill="#22BB9C"/>
<path d="M139.939 170.985C140.36 170.985 140.702 170.643 140.702 170.222C140.702 169.801 140.36 169.458 139.939 169.458H123.239C122.818 169.458 122.476 169.801 122.476 170.222C122.476 170.643 122.818 170.985 123.239 170.985H139.939Z" fill="#22BB9C"/>
<path d="M189.119 170.675H205.819C206.24 170.675 206.582 170.332 206.582 169.911C206.582 169.49 206.24 169.148 205.819 169.148H189.119C188.698 169.148 188.355 169.49 188.355 169.911C188.355 170.332 188.698 170.675 189.119 170.675Z" fill="#22BB9C"/>
<path d="M146.973 170.835H181.595C182.016 170.835 182.359 170.493 182.359 170.072C182.359 169.651 182.016 169.308 181.595 169.308H146.973C146.552 169.308 146.21 169.651 146.21 170.072C146.21 170.493 146.552 170.835 146.973 170.835Z" fill="#22BB9C"/>
<path d="M160.596 193.583H143.896C143.475 193.583 143.133 193.925 143.133 194.346C143.133 194.767 143.475 195.11 143.896 195.11H160.596C161.017 195.11 161.359 194.767 161.359 194.346C161.359 193.925 161.017 193.583 160.596 193.583Z" fill="#22BB9C"/>
<path d="M214.53 154.305V206.032C214.53 210.607 210.808 214.328 206.234 214.328H154.506C149.931 214.328 146.21 210.607 146.21 206.032V154.305C146.21 149.73 149.931 146.009 154.506 146.009H206.234C210.808 146.009 214.53 149.73 214.53 154.305Z" fill="white"/>
<path d="M214.53 154.305V206.032C214.53 210.607 210.808 214.328 206.234 214.328H154.506C149.931 214.328 146.21 210.607 146.21 206.032V154.305C146.21 149.73 149.931 146.009 154.506 146.009H206.234C210.808 146.009 214.53 149.73 214.53 154.305ZM203.025 213.352C208.84 213.352 213.554 208.638 213.554 202.823V179.953C213.554 161.745 198.793 146.985 180.585 146.985H154.506C150.463 146.985 147.186 150.262 147.186 154.305V198.815C147.186 206.844 153.694 213.352 161.723 213.352H203.025V213.352H203.025V213.352Z" fill="#3F3D56"/>
<path d="M187.256 167.135H170.556C170.135 167.135 169.793 166.793 169.793 166.372C169.793 165.951 170.135 165.608 170.556 165.608H187.256C187.677 165.608 188.019 165.951 188.019 166.372C188.019 166.793 187.677 167.135 187.256 167.135V167.135Z" fill="#22BB9C"/>
<path d="M187.256 183.416H170.556C170.135 183.416 169.793 183.074 169.793 182.653C169.793 182.232 170.135 181.889 170.556 181.889H187.256C187.677 181.889 188.019 182.232 188.019 182.653C188.019 183.074 187.677 183.416 187.256 183.416V183.416Z" fill="#22BB9C"/>
<path d="M178.96 205.864H162.261C161.84 205.864 161.497 205.522 161.497 205.101C161.497 204.68 161.84 204.337 162.261 204.337H178.96C179.381 204.337 179.724 204.68 179.724 205.101C179.724 205.522 179.381 205.864 178.96 205.864V205.864Z" fill="#22BB9C"/>
<path d="M196.217 175.281H161.595C161.174 175.281 160.831 174.939 160.831 174.518C160.831 174.097 161.174 173.754 161.595 173.754H196.217C196.638 173.754 196.98 174.097 196.98 174.518C196.98 174.939 196.638 175.281 196.217 175.281V175.281V175.281Z" fill="#22BB9C"/>
<path d="M204.797 125.641C204.797 109.504 191.158 100.627 175.579 96.4228C155.605 91.0324 140.976 101.94 146.361 125.641C147.581 131.013 150.5 137.286 154.113 142.653H182.785C192.362 136.417 204.797 138.166 204.797 125.641H204.797Z" fill="#22BB9C"/>
<path d="M175.15 156.146C176.781 153.037 178.849 150.793 181.127 149.086H154.272C161.184 158.959 170.35 165.296 175.15 156.146Z" fill="#22BB9C"/>
<path d="M172.051 108.366C173.775 108.366 175.173 109.764 175.173 111.488V117.731H168.929V111.488C168.929 109.764 170.327 108.366 172.051 108.366V108.366ZM176.734 117.731V111.488C176.734 108.902 174.637 106.805 172.051 106.805C169.465 106.805 167.369 108.902 167.369 111.488V117.731C165.645 117.731 164.247 119.129 164.247 120.853V128.657C164.247 130.381 165.645 131.778 167.369 131.778H176.734C178.458 131.778 179.855 130.381 179.855 128.657V120.853C179.855 119.129 178.458 117.731 176.734 117.731H176.734ZM167.369 119.292H176.734C177.596 119.292 178.294 119.991 178.294 120.853V128.657C178.294 129.519 177.596 130.217 176.734 130.217H167.369C166.507 130.217 165.808 129.519 165.808 128.657V120.853C165.808 119.991 166.507 119.292 167.369 119.292V119.292Z" fill="white"/>
<path d="M127.441 144.713C127.065 147.856 128.381 150.597 130.381 150.837C132.381 151.076 134.307 148.723 134.684 145.58C134.848 144.204 134.689 142.906 134.289 141.86L135.717 128.523L129.444 127.986L128.703 141.191C128.068 142.113 127.606 143.337 127.441 144.713V144.713Z" fill="#FFB6B6"/>
<path d="M28.5479 158.765C44.3145 158.765 57.0958 145.984 57.0958 130.217C57.0958 114.451 44.3145 101.67 28.5479 101.67C12.7813 101.67 0 114.451 0 130.217C0 145.984 12.7813 158.765 28.5479 158.765Z" fill="#22BB9C"/>
<path d="M28.5476 117.437C30.5643 117.437 32.1991 119.072 32.1991 121.089V128.392H24.8962V121.089C24.8962 119.072 26.531 117.437 28.5476 117.437V117.437ZM34.0249 128.392V121.089C34.0249 118.064 31.5726 115.612 28.5476 115.612C25.5227 115.612 23.0704 118.064 23.0704 121.089V128.392C21.0538 128.392 19.4189 130.027 19.4189 132.043V141.172C19.4189 143.189 21.0538 144.823 23.0704 144.823H34.0249C36.0415 144.823 37.6763 143.189 37.6763 141.172V132.043C37.6763 130.027 36.0415 128.392 34.0249 128.392H34.0249V128.392ZM23.0704 130.217H34.0249C35.0332 130.217 35.8506 131.035 35.8506 132.043V141.172C35.8506 142.18 35.0332 142.998 34.0249 142.998H23.0704C22.0621 142.998 21.2447 142.18 21.2447 141.172V132.043C21.2447 131.035 22.0621 130.217 23.0704 130.217V130.217Z" fill="white"/>
<path d="M128.946 65.1479C128.946 65.1479 135.778 63.1959 137.242 66.1239C138.706 69.0518 142.122 107.604 142.122 107.604L135.534 138.376L127.97 136.396L131.874 105.164L126.506 81.7398L128.946 65.1479Z" fill="#E6E6E6"/>
<path d="M110.508 55.2441C116.584 55.2441 121.51 50.3186 121.51 44.2426C121.51 38.1667 116.584 33.2412 110.508 33.2412C104.432 33.2412 99.5068 38.1667 99.5068 44.2426C99.5068 50.3186 104.432 55.2441 110.508 55.2441Z" fill="#FFB6B6"/>
<path d="M104.79 54.1679C104.79 54.1679 95.0303 53.6799 96.0063 45.8719C93.5906 37.5572 95.7288 32.1586 103.326 30.2559C103.326 30.2559 105.278 29.7679 105.766 29.7679C112.185 29.7679 115.526 31.7199 115.526 31.7199C115.526 31.7199 115.038 29.7871 115.526 30.2655C116.014 30.7439 116.502 31.7199 116.502 31.7199C116.502 31.7199 121.382 34.1599 121.382 39.0399C121.382 43.9199 121.382 41.9679 121.382 41.9679C121.382 41.9679 120.406 41.9679 119.43 39.0399C118.454 36.1119 112.135 38.0639 112.135 38.0639L112.598 39.0399L111.134 38.5519L109.67 40.0159L108.694 39.5279C108.694 39.5279 104.79 39.5279 105.278 39.5279C105.766 39.5279 105.426 42.8443 105.426 42.8443L101.862 46.8479L105.766 54.1679H104.79Z" fill="#2F2E41"/>
</g>
<defs>
<clipPath id="clip0_929_19899">
<rect width="275.712" height="250" fill="white"/>
</clipPath>
</defs>
</svg>
