<svg width="21" height="19" viewBox="0 0 21 19" fill="none" xmlns="http://www.w3.org/2000/svg">
<path d="M8.44617 15.4267H0.814173" stroke="#212121" stroke-width="1.5" stroke-linecap="round" stroke-linejoin="round"/>
<path d="M11.8506 3.68629H19.4826" stroke="#212121" stroke-width="1.5" stroke-linecap="round" stroke-linejoin="round"/>
<path fill-rule="evenodd" clip-rule="evenodd" d="M6.50359 3.62068C6.50359 2.05126 5.22185 0.778686 3.64114 0.778686C2.06043 0.778686 0.778686 2.05126 0.778686 3.62068C0.778686 5.1901 2.06043 6.46267 3.64114 6.46267C5.22185 6.46267 6.50359 5.1901 6.50359 3.62068Z" stroke="#212121" stroke-width="1.5" stroke-linecap="round" stroke-linejoin="round"/>
<path fill-rule="evenodd" clip-rule="evenodd" d="M20.159 15.3793C20.159 13.8099 18.8782 12.5373 17.2975 12.5373C15.7158 12.5373 14.4341 13.8099 14.4341 15.3793C14.4341 16.9487 15.7158 18.2213 17.2975 18.2213C18.8782 18.2213 20.159 16.9487 20.159 15.3793Z" stroke="#212121" stroke-width="1.5" stroke-linecap="round" stroke-linejoin="round"/>
</svg>
