<svg width="4" height="14" viewBox="0 0 4 14" fill="none" xmlns="http://www.w3.org/2000/svg">
<path d="M1.74998 5.24994C0.787491 5.24994 0 6.03743 0 6.99991C0 7.9624 0.787491 8.74989 1.74998 8.74989C2.71247 8.74989 3.49996 7.9624 3.49996 6.99991C3.49996 6.03743 2.71247 5.24994 1.74998 5.24994ZM1.74998 0C0.787491 0 0 0.78749 0 1.74998C0 2.71247 0.787491 3.49996 1.74998 3.49996C2.71247 3.49996 3.49996 2.71247 3.49996 1.74998C3.49996 0.78749 2.71247 0 1.74998 0ZM1.74998 10.4999C0.787491 10.4999 0 11.2874 0 12.2498C0 13.2123 0.787491 13.9998 1.74998 13.9998C2.71247 13.9998 3.49996 13.2123 3.49996 12.2498C3.49996 11.2874 2.71247 10.4999 1.74998 10.4999Z" fill="#212121"/>
</svg>
