<svg width="17" height="17" viewBox="0 0 17 17" fill="none" xmlns="http://www.w3.org/2000/svg">
<path fill-rule="evenodd" clip-rule="evenodd" d="M0 8.50475C0 3.81324 3.81508 0 8.49983 0C13.1846 0 16.9997 3.81324 16.9997 8.50475C16.9997 13.1864 13.1846 16.9997 8.49983 16.9997C3.81508 16.9997 0 13.1864 0 8.50475ZM11.6175 9.36499C11.7078 9.27478 11.8226 9.13537 11.8473 9.10257C11.9785 8.93036 12.0442 8.71715 12.0442 8.50475C12.0442 8.26612 11.9703 8.04471 11.8309 7.86429C11.8194 7.85287 11.797 7.82851 11.7679 7.79676C11.7133 7.73736 11.635 7.65209 11.5601 7.57728C10.8873 6.85563 9.13158 5.67476 8.21268 5.31393C8.0732 5.25735 7.72041 5.13352 7.53171 5.12532C7.35121 5.12532 7.17891 5.16632 7.01482 5.24833C6.80971 5.36314 6.64562 5.54355 6.55537 5.75676C6.49794 5.90437 6.40769 6.3472 6.40769 6.3554C6.31744 6.83923 6.26822 7.62648 6.26822 8.49573C6.26822 9.32481 6.31744 10.0784 6.39128 10.5705C6.39332 10.5725 6.40037 10.6077 6.41134 10.6624C6.44467 10.8286 6.51411 11.1748 6.58819 11.3167C6.76869 11.6611 7.12148 11.8743 7.49889 11.8743H7.53171C7.77784 11.8661 8.29472 11.6529 8.29472 11.6447C9.1644 11.2839 10.8791 10.1604 11.5683 9.41419L11.6175 9.36499Z" fill="#06C149"/>
</svg>
