<svg width="17" height="15" viewBox="0 0 17 15" fill="none" xmlns="http://www.w3.org/2000/svg">
<path fill-rule="evenodd" clip-rule="evenodd" d="M6.63304 9.99008C7.16386 10.3499 7.8108 10.5675 8.49921 10.5675C10.3239 10.5675 11.8086 9.06952 11.8086 7.22842C11.8086 6.53382 11.5929 5.88107 11.2363 5.34548L10.3322 6.25766C10.4815 6.54219 10.5644 6.87694 10.5644 7.22842C10.5644 8.37493 9.6355 9.31221 8.49921 9.31221C8.15086 9.31221 7.8191 9.22853 7.5371 9.07789L6.63304 9.99008ZM13.965 2.59219C15.1677 3.69685 16.1878 5.18647 16.9509 6.97736C17.0173 7.13637 17.0173 7.32048 16.9509 7.47111C15.176 11.6387 12.0159 14.1326 8.49921 14.1326H8.49092C6.89016 14.1326 5.35575 13.6053 4.00381 12.6429L2.39476 14.2665C2.27034 14.392 2.11276 14.4506 1.95517 14.4506C1.79758 14.4506 1.6317 14.392 1.51558 14.2665C1.30823 14.0572 1.27505 13.7225 1.44093 13.4798L1.46582 13.4463L13.7328 1.0691L13.7328 1.06909C13.7494 1.05235 13.766 1.03562 13.7743 1.01888L13.7743 1.01888C13.7909 1.00214 13.8074 0.985407 13.8157 0.968671L14.5954 0.182018C14.8442 -0.0606727 15.234 -0.0606727 15.4746 0.182018C15.7234 0.424709 15.7234 0.826404 15.4746 1.0691L13.965 2.59219ZM5.18381 7.23168C5.18381 7.44927 5.20869 7.66685 5.24187 7.8677L2.17305 10.9641C1.34364 9.99334 0.622057 8.82173 0.0497646 7.47438C-0.0165882 7.32374 -0.0165882 7.13963 0.0497646 6.98062C1.8247 2.81304 4.98475 0.327549 8.49316 0.327549H8.50145C9.68751 0.327549 10.8404 0.612083 11.902 1.14768L9.1318 3.94281C8.93274 3.90933 8.7171 3.88422 8.50145 3.88422C6.66846 3.88422 5.18381 5.38221 5.18381 7.23168Z" fill="#9E9E9E"/>
</svg>
