<svg width="17" height="17" viewBox="0 0 17 17" fill="none" xmlns="http://www.w3.org/2000/svg">
<path fill-rule="evenodd" clip-rule="evenodd" d="M12.4653 0.00878479C13.688 -0.0676347 14.8937 0.356918 15.8023 1.18904C16.6344 2.09758 17.0589 3.30331 16.991 4.53451V12.4652C17.0674 13.6964 16.6344 14.9021 15.8108 15.8106C14.9022 16.6427 13.688 17.0673 12.4653 16.9909H4.53455C3.30334 17.0673 2.0976 16.6427 1.18905 15.8106C0.356921 14.9021 -0.0676352 13.6964 0.00878486 12.4652V4.53451C-0.0676352 3.30331 0.356921 2.09758 1.18905 1.18904C2.0976 0.356918 3.30334 -0.0676347 4.53455 0.00878479H12.4653ZM7.63381 12.618L13.3483 6.88653C13.8663 6.36009 13.8663 5.51098 13.3483 4.99303L12.2445 3.88919C11.718 3.36275 10.8689 3.36275 10.3425 3.88919L9.77357 4.46659C9.68866 4.5515 9.68866 4.69584 9.77357 4.78075C9.77357 4.78075 11.1237 6.12234 11.1491 6.1563C11.2425 6.2582 11.302 6.39405 11.302 6.54689C11.302 6.85257 11.0557 7.1073 10.7416 7.1073C10.5972 7.1073 10.4614 7.04786 10.3679 6.95446L8.94993 5.54495C8.882 5.47702 8.76313 5.47702 8.6952 5.54495L4.64494 9.59518C4.36473 9.87538 4.2034 10.249 4.19491 10.6481L4.14396 12.6604C4.14396 12.7708 4.17792 12.8727 4.25434 12.9491C4.33076 13.0256 4.43266 13.068 4.54304 13.068H6.53845C6.94603 13.068 7.33662 12.9067 7.63381 12.618Z" fill="#06C149"/>
</svg>
