<svg width="87" height="60" viewBox="0 0 87 60" fill="none" xmlns="http://www.w3.org/2000/svg">
<path d="M0 24C0 16.5449 0 12.8174 1.21793 9.87707C2.84183 5.95662 5.95662 2.84183 9.87707 1.21793C12.8174 0 16.5449 0 24 0H63C70.4551 0 74.1826 0 77.1229 1.21793C81.0434 2.84183 84.1582 5.95662 85.7821 9.87707C87 12.8174 87 16.5449 87 24V36C87 43.4551 87 47.1826 85.7821 50.1229C84.1582 54.0434 81.0434 57.1582 77.1229 58.7821C74.1826 60 70.4551 60 63 60H24C16.5449 60 12.8174 60 9.87707 58.7821C5.95662 57.1582 2.84183 54.0434 1.21793 50.1229C0 47.1826 0 43.4551 0 36V24Z" fill="white"/>
<g clip-path="url(#clip0_727_25846)">
<path d="M55.0078 30.2247C55.0078 29.2414 54.9295 28.5239 54.7598 27.7798H43.7295V32.2178H50.2041C50.0736 33.3207 49.3687 34.9816 47.8022 36.0977L47.7802 36.2463L51.2678 38.9965L51.5095 39.021C53.7285 36.9349 55.0078 33.8654 55.0078 30.2247Z" fill="#4285F4"/>
<path d="M43.7296 41.9173C46.9016 41.9173 49.5645 40.8543 51.5095 39.0207L47.8023 36.0973C46.8102 36.8016 45.4787 37.2932 43.7296 37.2932C40.6228 37.2932 37.986 35.2071 37.046 32.3237L36.9083 32.3356L33.2818 35.1925L33.2344 35.3267C35.1663 39.2332 39.1346 41.9173 43.7296 41.9173Z" fill="#34A853"/>
<path d="M37.0462 32.3238C36.7982 31.5797 36.6547 30.7824 36.6547 29.9586C36.6547 29.1347 36.7982 28.3375 37.0332 27.5934L37.0266 27.4349L33.3547 24.5322L33.2346 24.5904C32.4383 26.2115 31.9814 28.0319 31.9814 29.9586C31.9814 31.8853 32.4383 33.7056 33.2346 35.3267L37.0462 32.3238Z" fill="#FBBC05"/>
<path d="M43.7295 22.624C45.9356 22.624 47.4237 23.594 48.2722 24.4046L51.5878 21.1093C49.5515 19.1826 46.9015 18 43.7295 18C39.1346 18 35.1663 20.6841 33.2344 24.5906L37.033 27.5936C37.986 24.7102 40.6228 22.624 43.7295 22.624Z" fill="#EB4335"/>
</g>
<path d="M9.87707 58.7821L10.2597 57.8582L9.87707 58.7821ZM1.21793 50.1229L2.14181 49.7403L1.21793 50.1229ZM85.7821 50.1229L86.706 50.5056L85.7821 50.1229ZM77.1229 58.7821L76.7403 57.8582L77.1229 58.7821ZM85.7821 9.87707L86.706 9.49438L85.7821 9.87707ZM24 1H63V-1H24V1ZM86 24V36H88V24H86ZM63 59H24V61H63V59ZM1 36V24H-1V36H1ZM24 59C20.2588 59 17.503 58.9995 15.3136 58.8501C13.1332 58.7013 11.5878 58.4083 10.2597 57.8582L9.49438 59.706C11.1067 60.3738 12.8952 60.6897 15.1774 60.8454C17.4507 61.0005 20.2862 61 24 61V59ZM-1 36C-1 39.7139 -1.00054 42.5493 -0.84544 44.8226C-0.689725 47.1048 -0.373799 48.8933 0.294048 50.5056L2.14181 49.7403C1.59173 48.4122 1.29869 46.8668 1.14992 44.6864C1.00054 42.497 1 39.7412 1 36H-1ZM10.2597 57.8582C6.58433 56.3358 3.66422 53.4157 2.14181 49.7403L0.294048 50.5056C2.01945 54.6711 5.3289 57.9806 9.49438 59.706L10.2597 57.8582ZM86 36C86 39.7412 85.9995 42.497 85.8501 44.6864C85.7013 46.8668 85.4083 48.4122 84.8582 49.7403L86.706 50.5056C87.3738 48.8933 87.6897 47.1048 87.8454 44.8226C88.0005 42.5493 88 39.7139 88 36H86ZM63 61C66.7139 61 69.5493 61.0005 71.8226 60.8454C74.1048 60.6897 75.8933 60.3738 77.5056 59.706L76.7403 57.8582C75.4122 58.4083 73.8668 58.7013 71.6864 58.8501C69.497 58.9995 66.7412 59 63 59V61ZM84.8582 49.7403C83.3358 53.4157 80.4157 56.3358 76.7403 57.8582L77.5056 59.706C81.6711 57.9806 84.9806 54.6711 86.706 50.5056L84.8582 49.7403ZM63 1C66.7412 1 69.497 1.00054 71.6864 1.14992C73.8668 1.29869 75.4122 1.59173 76.7403 2.14181L77.5056 0.294048C75.8933 -0.373799 74.1048 -0.689725 71.8226 -0.84544C69.5493 -1.00054 66.7138 -1 63 -1V1ZM88 24C88 20.2861 88.0005 17.4507 87.8454 15.1774C87.6897 12.8952 87.3738 11.1067 86.706 9.49438L84.8582 10.2597C85.4083 11.5878 85.7013 13.1332 85.8501 15.3136C85.9995 17.503 86 20.2588 86 24H88ZM76.7403 2.14181C80.4157 3.66422 83.3358 6.58433 84.8582 10.2597L86.706 9.49438C84.9806 5.3289 81.6711 2.01945 77.5056 0.294048L76.7403 2.14181ZM24 -1C20.2861 -1 17.4507 -1.00054 15.1774 -0.84544C12.8952 -0.689725 11.1067 -0.373799 9.49438 0.294048L10.2597 2.14181C11.5878 1.59173 13.1332 1.29869 15.3136 1.14992C17.503 1.00054 20.2588 1 24 1V-1ZM1 24C1 20.2588 1.00054 17.503 1.14992 15.3136C1.29869 13.1332 1.59173 11.5878 2.14181 10.2597L0.294048 9.49438C-0.373799 11.1067 -0.689725 12.8952 -0.84544 15.1774C-1.00054 17.4507 -1 20.2861 -1 24H1ZM9.49438 0.294048C5.3289 2.01945 2.01945 5.3289 0.294048 9.49438L2.14181 10.2597C3.66422 6.58433 6.58433 3.66422 10.2597 2.14181L9.49438 0.294048Z" fill="#EEEEEE"/>
<defs>
<clipPath id="clip0_727_25846">
<rect width="23.04" height="24" fill="white" transform="translate(31.9805 18)"/>
</clipPath>
</defs>
</svg>
