<svg width="17" height="17" viewBox="0 0 17 17" fill="none" xmlns="http://www.w3.org/2000/svg">
<path fill-rule="evenodd" clip-rule="evenodd" d="M4.81941 0H12.1888C15.0702 0 16.9997 2.02296 16.9997 5.0319V11.9771C16.9997 14.9767 15.0702 16.9997 12.1888 16.9997H4.81941C1.93796 16.9997 0 14.9767 0 11.9771V5.0319C0 2.02296 1.93796 0 4.81941 0ZM8.01534 11.0413L12.0528 7.00386C12.3418 6.71487 12.3418 6.24738 12.0528 5.94988C11.7638 5.66089 11.2878 5.66089 10.9988 5.94988L7.48835 9.46032L6.00088 7.97284C5.71189 7.68385 5.2359 7.68385 4.9469 7.97284C4.65791 8.26184 4.65791 8.72933 4.9469 9.02682L6.96986 11.0413C7.11436 11.1858 7.30136 11.2538 7.48835 11.2538C7.68385 11.2538 7.87085 11.1858 8.01534 11.0413Z" fill="#06C149"/>
</svg>
