<svg width="17" height="17" viewBox="0 0 17 17" fill="none" xmlns="http://www.w3.org/2000/svg">
<path d="M13.5834 10.2108C13.082 10.2142 12.5876 10.3285 12.1356 10.5457C11.6837 10.7628 11.2855 11.0774 10.9696 11.4668L6.64169 9.47254C6.84518 8.84944 6.84518 8.17777 6.64169 7.55467L10.9696 5.56042C11.4802 6.17649 12.1919 6.5924 12.9793 6.73477C13.7666 6.87713 14.579 6.7368 15.2729 6.33852C15.9669 5.94024 16.4978 5.30964 16.7721 4.55799C17.0463 3.80634 17.0463 2.98197 16.7719 2.23037C16.4975 1.47877 15.9664 0.848263 15.2724 0.450114C14.5784 0.0519645 13.766 -0.0882268 12.9787 0.0542815C12.1913 0.19679 11.4797 0.612837 10.9692 1.229C10.4588 1.84515 10.1824 2.62182 10.1889 3.42191C10.1915 3.62408 10.2113 3.82565 10.2483 4.02443L5.76762 6.08656C5.28991 5.61947 4.68499 5.30373 4.02864 5.17891C3.37229 5.05409 2.69369 5.12573 2.07788 5.38487C1.46206 5.64401 0.936414 6.07911 0.566789 6.63567C0.197164 7.19223 0 7.84549 0 8.51361C0 9.18172 0.197164 9.83498 0.566789 10.3915C0.936414 10.9481 1.46206 11.3832 2.07788 11.6423C2.69369 11.9015 3.37229 11.9731 4.02864 11.8483C4.68499 11.7235 5.28991 11.4077 5.76762 10.9406L10.2483 13.0028C10.2113 13.2016 10.1915 13.4031 10.1889 13.6053C10.1889 14.2767 10.388 14.9329 10.761 15.4912C11.134 16.0494 11.6641 16.4845 12.2844 16.7414C12.9046 16.9983 13.5871 17.0655 14.2456 16.9345C14.9041 16.8036 15.5089 16.4803 15.9836 16.0055C16.4583 15.5308 16.7816 14.926 16.9126 14.2675C17.0436 13.6091 16.9764 12.9266 16.7194 12.3063C16.4625 11.686 16.0275 11.1559 15.4692 10.7829C14.911 10.4099 14.2547 10.2108 13.5834 10.2108ZM13.5834 1.72468C13.9191 1.72468 14.2472 1.82422 14.5263 2.01071C14.8054 2.19721 15.023 2.46228 15.1514 2.77241C15.2799 3.08254 15.3135 3.42379 15.248 3.75302C15.1825 4.08225 15.0209 4.38467 14.7835 4.62203C14.5461 4.8594 14.2437 5.02104 13.9145 5.08653C13.5853 5.15202 13.244 5.11841 12.9339 4.98995C12.6237 4.86149 12.3587 4.64395 12.1722 4.36484C11.9857 4.08573 11.8861 3.75759 11.8861 3.42191C11.8861 2.97178 12.065 2.54008 12.3832 2.22178C12.7015 1.90349 13.1332 1.72468 13.5834 1.72468ZM3.39998 10.2108C3.0643 10.2108 2.73616 10.1113 2.45705 9.9248C2.17794 9.73831 1.9604 9.47324 1.83194 9.16311C1.70348 8.85298 1.66987 8.51172 1.73536 8.18249C1.80085 7.85326 1.96249 7.55084 2.19985 7.31348C2.43722 7.07612 2.73963 6.91447 3.06887 6.84898C3.3981 6.7835 3.73935 6.81711 4.04948 6.94557C4.35961 7.07403 4.62468 7.29157 4.81118 7.57067C4.99767 7.84978 5.09721 8.17792 5.09721 8.51361C5.09721 8.96374 4.9184 9.39544 4.6001 9.71373C4.28181 10.032 3.85011 10.2108 3.39998 10.2108ZM13.5834 15.3025C13.2477 15.3025 12.9195 15.203 12.6404 15.0165C12.3613 14.83 12.1438 14.5649 12.0153 14.2548C11.8869 13.9447 11.8533 13.6034 11.9188 13.2742C11.9842 12.945 12.1459 12.6425 12.3832 12.4052C12.6206 12.1678 12.923 12.0062 13.2523 11.9407C13.5815 11.8752 13.9227 11.9088 14.2329 12.0373C14.543 12.1657 14.8081 12.3833 14.9946 12.6624C15.1811 12.9415 15.2806 13.2696 15.2806 13.6053C15.2806 14.0554 15.1018 14.4871 14.7835 14.8054C14.4652 15.1237 14.0335 15.3025 13.5834 15.3025Z" fill="#212121"/>
</svg>
