<svg width="619" height="400" viewBox="0 0 619 400" fill="none" xmlns="http://www.w3.org/2000/svg">
<g opacity="0.75">
<path opacity="0.1" d="M361.831 76.6387L490.137 153.009V282.137L361.831 205.075V76.6387Z" fill="white"/>
<path opacity="0.2" d="M617.993 76.7168L489.691 153.007V282L617.993 205.019V76.7168Z" fill="white"/>
<path opacity="0.3" d="M361.831 77.062L490.137 0L618.442 77.062V77.6384L490.137 154.7L361.831 77.6384V77.062Z" fill="white"/>
<path opacity="0.1" d="M0 149.893L128.306 226.263V355.391L0 278.329V149.893Z" fill="white"/>
<path opacity="0.2" d="M256.162 149.971L127.86 226.261V355.254L256.162 278.273V149.971Z" fill="white"/>
<path opacity="0.3" d="M0 150.316L128.306 73.2539L256.611 150.316V150.892L128.306 227.954L0 150.892V150.316Z" fill="white"/>
<path opacity="0.1" d="M308.111 108.762L361.609 140.605V194.445L308.111 162.314V108.762Z" fill="white"/>
<path opacity="0.2" d="M414.919 108.795L361.423 140.605V194.389L414.919 162.291V108.795Z" fill="white"/>
<path opacity="0.3" d="M308.111 108.938L361.609 76.8066L415.107 108.938V109.178L361.609 141.31L308.111 109.178V108.938Z" fill="white"/>
<path opacity="0.1" d="M352.951 314.316L406.449 346.159V400L352.951 367.869V314.316Z" fill="white"/>
<path opacity="0.2" d="M459.759 314.35L406.263 346.159V399.943L459.759 367.846V314.35Z" fill="white"/>
<path opacity="0.3" d="M352.951 314.493L406.449 282.361L459.947 314.493V314.733L406.449 346.864L352.951 314.733V314.493Z" fill="white"/>
</g>
</svg>
