<svg width="17" height="17" viewBox="0 0 17 17" fill="none" xmlns="http://www.w3.org/2000/svg">
<path fill-rule="evenodd" clip-rule="evenodd" d="M0 11.9678V5.0234C0 2.02296 1.93031 0 4.81091 0H12.1803C15.0617 0 16.9997 2.02296 16.9997 5.0234V11.9678C16.9997 14.9767 15.0617 16.9997 12.1803 16.9997H4.81091C1.93031 16.9997 0 14.9767 0 11.9678ZM9.13732 10.4293V5.0319C9.13732 4.67491 8.84833 4.39441 8.49983 4.39441C8.14284 4.39441 7.86235 4.67491 7.86235 5.0319V10.4293L5.76289 8.32134C5.64389 8.20234 5.47389 8.13434 5.3124 8.13434C5.15175 8.13434 4.9894 8.20234 4.86191 8.32134C4.61541 8.56783 4.61541 8.97582 4.86191 9.22232L8.04934 12.4268C8.28734 12.6648 8.71233 12.6648 8.95033 12.4268L12.1378 9.22232C12.3843 8.97582 12.3843 8.56783 12.1378 8.32134C11.8828 8.07484 11.4833 8.07484 11.2283 8.32134L9.13732 10.4293Z" fill="#06C149"/>
</svg>
