<svg width="24" height="24" viewBox="0 0 24 24" fill="none" xmlns="http://www.w3.org/2000/svg">
<path d="M2.91004 19.8303C2.01003 18.7703 1.30002 17.575 0.780011 16.2446C0.260004 14.915 0 13.5002 0 12.0002C0 10.3401 0.315205 8.78012 0.945613 7.3201C1.57522 5.86008 2.43003 4.59006 3.51005 3.51005C4.59006 2.43003 5.86008 1.57482 7.3201 0.944413C8.78012 0.314804 10.3401 0 12.0002 0C13.6602 0 15.2202 0.314804 16.6802 0.944413C18.1403 1.57482 19.4103 2.43003 20.4903 3.51005C21.5703 4.59006 22.4251 5.86008 23.0547 7.3201C23.6851 8.78012 24.0003 10.3401 24.0003 12.0002C24.0003 13.5002 23.7403 14.9202 23.2203 16.2602C22.7003 17.6002 21.9903 18.8003 21.0903 19.8603C20.8703 20.1003 20.6003 20.2203 20.2803 20.2203C19.9603 20.2203 19.6803 20.1003 19.4403 19.8603C19.2203 19.6403 19.1055 19.3651 19.0959 19.0347C19.0855 18.7051 19.1903 18.4103 19.4103 18.1503C20.0903 17.3102 20.6255 16.3702 21.0159 15.3302C21.4055 14.2902 21.6003 13.1802 21.6003 12.0002C21.6003 9.32013 20.6703 7.0501 18.8103 5.19007C16.9502 3.33005 14.6802 2.40003 12.0002 2.40003C9.32013 2.40003 7.0501 3.33005 5.19007 5.19007C3.33005 7.0501 2.40003 9.32013 2.40003 12.0002C2.40003 13.1802 2.59524 14.285 2.98564 15.3146C3.37525 16.345 3.92005 17.2802 4.62006 18.1203C4.84007 18.3803 4.94527 18.6751 4.93567 19.0047C4.92527 19.3351 4.80007 19.6203 4.56006 19.8603C4.32006 20.1003 4.04006 20.2151 3.72005 20.2047C3.40005 20.1951 3.13004 20.0703 2.91004 19.8303ZM6.30009 16.4102C5.84008 15.7902 5.47528 15.1102 5.20567 14.3702C4.93527 13.6302 4.80007 12.8402 4.80007 12.0002C4.80007 10.0001 5.50008 8.30012 6.9001 6.9001C8.30012 5.50008 10.0001 4.80007 12.0002 4.80007C14.0002 4.80007 15.7002 5.50008 17.1002 6.9001C18.5003 8.30012 19.2003 10.0001 19.2003 12.0002C19.2003 12.8402 19.0655 13.6402 18.7959 14.4002C18.5255 15.1602 18.1603 15.8402 17.7002 16.4402C17.5002 16.7002 17.235 16.8302 16.9046 16.8302C16.575 16.8302 16.2802 16.7002 16.0202 16.4402C15.8002 16.2202 15.685 15.9502 15.6746 15.6302C15.665 15.3102 15.7602 15.0002 15.9602 14.7002C16.2402 14.3002 16.4502 13.8754 16.5902 13.4258C16.7302 12.9754 16.8002 12.5002 16.8002 12.0002C16.8002 10.6801 16.3302 9.55013 15.3902 8.61012C14.4502 7.67011 13.3202 7.2001 12.0002 7.2001C10.6801 7.2001 9.55013 7.67011 8.61012 8.61012C7.67011 9.55013 7.2001 10.6801 7.2001 12.0002C7.2001 12.5202 7.2753 13.0002 7.4257 13.4402C7.5753 13.8802 7.78011 14.3002 8.04011 14.7002C8.24011 15.0002 8.33012 15.315 8.31012 15.6446C8.29012 15.975 8.17011 16.2502 7.95011 16.4702C7.71011 16.7102 7.4253 16.825 7.0957 16.8146C6.76529 16.805 6.50009 16.6702 6.30009 16.4102ZM12.0002 24.0003C11.6602 24.0003 11.3754 23.8851 11.1458 23.6547C10.9154 23.4251 10.8002 23.1403 10.8002 22.8003V14.0702C10.4401 13.8502 10.1501 13.565 9.93014 13.2146C9.71013 12.865 9.60013 12.4602 9.60013 12.0002C9.60013 11.3402 9.83534 10.7749 10.3057 10.3045C10.7754 9.83494 11.3402 9.60013 12.0002 9.60013C12.6602 9.60013 13.2254 9.83494 13.6958 10.3045C14.1654 10.7749 14.4002 11.3402 14.4002 12.0002C14.4002 12.4602 14.2902 12.8702 14.0702 13.2302C13.8502 13.5902 13.5602 13.8702 13.2002 14.0702V22.8003C13.2002 23.1403 13.0854 23.4251 12.8558 23.6547C12.6254 23.8851 12.3402 24.0003 12.0002 24.0003Z" fill="#212121"/>
</svg>
