<svg width="20" height="16" viewBox="0 0 20 16" fill="none" xmlns="http://www.w3.org/2000/svg">
<path d="M19.4855 8.00099C19.4855 8.44939 19.1523 8.81996 18.72 8.87861L18.5998 8.88669L0.885704 8.88669C0.396544 8.88669 0 8.49015 0 8.00099C0 7.55259 0.333207 7.18202 0.765519 7.12337L0.885704 7.11528L18.5998 7.11528C19.0889 7.11528 19.4855 7.51183 19.4855 8.00099Z" fill="#212121"/>
<path d="M8.65558 14.4872C9.00221 14.8323 9.00342 15.3931 8.65828 15.7398C8.34451 16.0549 7.85252 16.0845 7.50523 15.828L7.40571 15.7425L0.26103 8.62849C-0.0550331 8.31379 -0.0837848 7.82002 0.174786 7.47274L0.260978 7.37327L7.40565 0.258121C7.75226 -0.0870506 8.31305 -0.0858896 8.65823 0.260715C8.97202 0.575809 8.99959 1.06792 8.7416 1.41413L8.65563 1.51329L2.14154 8.00121L8.65558 14.4872Z" fill="#212121"/>
</svg>
