<svg width="17" height="12" viewBox="0 0 17 12" fill="none" xmlns="http://www.w3.org/2000/svg">
<path d="M9.34982 3.39993H0.849983C0.382493 3.39993 0 3.78243 0 4.24992C0 4.71741 0.382493 5.0999 0.849983 5.0999H9.34982C9.81731 5.0999 10.1998 4.71741 10.1998 4.24992C10.1998 3.78243 9.81731 3.39993 9.34982 3.39993ZM9.34982 0H0.849983C0.382493 0 0 0.382492 0 0.849983C0 1.31747 0.382493 1.69997 0.849983 1.69997H9.34982C9.81731 1.69997 10.1998 1.31747 10.1998 0.849983C10.1998 0.382492 9.81731 0 9.34982 0ZM13.5997 6.79987V4.24992C13.5997 3.78243 13.2172 3.39993 12.7498 3.39993C12.2823 3.39993 11.8998 3.78243 11.8998 4.24992V6.79987H9.34982C8.88233 6.79987 8.49983 7.18236 8.49983 7.64985C8.49983 8.11734 8.88233 8.49983 9.34982 8.49983H11.8998V11.0498C11.8998 11.5173 12.2823 11.8998 12.7498 11.8998C13.2172 11.8998 13.5997 11.5173 13.5997 11.0498V8.49983H16.1497C16.6172 8.49983 16.9997 8.11734 16.9997 7.64985C16.9997 7.18236 16.6172 6.79987 16.1497 6.79987H13.5997ZM0.849983 8.49983H5.94988C6.41737 8.49983 6.79987 8.11734 6.79987 7.64985C6.79987 7.18236 6.41737 6.79987 5.94988 6.79987H0.849983C0.382493 6.79987 0 7.18236 0 7.64985C0 8.11734 0.382493 8.49983 0.849983 8.49983Z" fill="#212121"/>
</svg>
