<svg width="130" height="56" viewBox="0 0 130 56" fill="none" xmlns="http://www.w3.org/2000/svg">
<rect width="129.333" height="56" rx="12" fill="#FAFAFA"/>
<path d="M74 21C74.3094 21 74.6062 21.1229 74.8249 21.3417C75.0437 21.5605 75.1667 21.8572 75.1667 22.1667V33.8333C75.1667 34.1428 75.0437 34.4395 74.8249 34.6583C74.6062 34.8771 74.3094 35 74 35H61.1667L55.3333 29.1667C55.0463 28.8458 54.8877 28.4305 54.8877 28C54.8877 27.5695 55.0463 27.1542 55.3333 26.8333L61.1667 21H74Z" stroke="#2C3E50" stroke-width="1.5" stroke-linecap="round" stroke-linejoin="round"/>
<path d="M69.3337 25.6666L64.667 30.3333M64.667 25.6666L69.3337 30.3333L64.667 25.6666Z" stroke="#2C3E50" stroke-width="1.5" stroke-linecap="round" stroke-linejoin="round"/>
</svg>
