<svg width="27" height="32" viewBox="0 0 27 32" fill="none" xmlns="http://www.w3.org/2000/svg">
<path d="M8.70206 32.0007C3.9395 31.9732 0 22.2512 0 17.3C0 9.2123 6.06719 7.44167 8.40544 7.44167C9.45919 7.44167 10.5844 7.85548 11.5768 8.22167C12.2708 8.47711 12.9886 8.7408 13.3878 8.7408C13.6267 8.7408 14.1898 8.51648 14.6869 8.31967C15.7471 7.89761 17.0663 7.37305 18.6026 7.37305C18.6053 7.37305 18.609 7.37305 18.6117 7.37305C19.7588 7.37305 23.2369 7.6248 25.328 10.765L25.8178 11.5011L25.1129 12.033C24.1058 12.7929 22.2683 14.179 22.2683 16.9247C22.2683 20.1767 24.3493 21.4273 25.3491 22.0288C25.7904 22.2943 26.2472 22.568 26.2472 23.1668C26.2472 23.5577 23.1271 31.9522 18.5961 31.9522C17.4874 31.9522 16.7038 31.6189 16.0125 31.325C15.3131 31.0275 14.7097 30.7712 13.7127 30.7712C13.2073 30.7712 12.5683 31.0101 11.8917 31.2637C10.9671 31.6088 9.92063 32.0007 8.73319 32.0007H8.70206Z" fill="black"/>
<path d="M19.0821 0C19.2001 4.25475 16.1573 7.2065 13.118 7.02138C12.6172 3.62594 16.1569 0 19.0821 0Z" fill="black"/>
</svg>
