<svg width="21" height="23" viewBox="0 0 21 23" fill="none" xmlns="http://www.w3.org/2000/svg">
<path d="M7.875 11.375V18.375L14 14.875L7.875 11.375Z" fill="#212121"/>
<path d="M19.25 22.75H1.75C1.28601 22.7495 0.841163 22.565 0.513075 22.2369C0.184987 21.9088 0.000463292 21.464 0 21V8.75C0.000463292 8.28601 0.184987 7.84116 0.513075 7.51307C0.841163 7.18499 1.28601 7.00046 1.75 7H19.25C19.714 7.00046 20.1588 7.18499 20.4869 7.51307C20.815 7.84116 20.9995 8.28601 21 8.75V21C20.9995 21.464 20.815 21.9088 20.4869 22.2369C20.1588 22.565 19.714 22.7495 19.25 22.75ZM1.75 8.75V21H19.25V8.75H1.75ZM1.75 3.5H19.25V5.25H1.75V3.5ZM3.5 0H17.5V1.75H3.5V0Z" fill="#212121"/>
</svg>
