<svg width="18" height="24" viewBox="0 0 18 24" fill="none" xmlns="http://www.w3.org/2000/svg">
<path fill-rule="evenodd" clip-rule="evenodd" d="M8.74527 23.2482C4.43323 23.2482 0.750855 22.5772 0.750855 19.8899C0.750855 17.2026 4.40987 14.7219 8.74527 14.7219C13.0573 14.7219 16.7397 17.1786 16.7397 19.8659C16.7397 22.5521 13.0807 23.2482 8.74527 23.2482Z" stroke="#212121" stroke-width="1.5" stroke-linecap="round" stroke-linejoin="round"/>
<path fill-rule="evenodd" clip-rule="evenodd" d="M8.73687 10.9984C11.5666 10.9984 13.8601 8.70492 13.8601 5.87518C13.8601 3.04544 11.5666 0.750855 8.73687 0.750855C5.90713 0.750855 3.61254 3.04544 3.61254 5.87518C3.60299 8.69536 5.88058 10.9889 8.70077 10.9984C8.71351 10.9984 8.72519 10.9984 8.73687 10.9984Z" stroke="#212121" stroke-width="1.5" stroke-linecap="round" stroke-linejoin="round"/>
</svg>
