<svg width="16" height="18" viewBox="0 0 16 18" fill="none" xmlns="http://www.w3.org/2000/svg">
<path fill-rule="evenodd" clip-rule="evenodd" d="M12.6026 5.1633V6.44108C14.0379 6.88909 15.0837 8.18841 15.0837 9.7403V13.8544C15.0837 15.7756 13.4909 17.3333 11.5272 17.3333H4.47432C2.50979 17.3333 0.916992 15.7756 0.916992 13.8544V9.7403C0.916992 8.18841 1.96362 6.88909 3.39806 6.44108V5.1633C3.40653 2.67895 5.46421 0.666626 7.98763 0.666626C10.5449 0.666626 12.6026 2.67895 12.6026 5.1633ZM8.00456 2.11583C9.72353 2.11583 11.1207 3.48222 11.1207 5.1633V6.26138H4.87993V5.14673C4.8884 3.47394 6.28559 2.11583 8.00456 2.11583ZM8.74126 12.7124C8.74126 13.1182 8.41101 13.4411 7.99609 13.4411C7.58964 13.4411 7.25939 13.1182 7.25939 12.7124V10.874C7.25939 10.4765 7.58964 10.1535 7.99609 10.1535C8.41101 10.1535 8.74126 10.4765 8.74126 10.874V12.7124Z" fill="#212121"/>
</svg>
